<svg width="95" height="186" viewBox="0 0 95 186" fill="none" xmlns="http://www.w3.org/2000/svg">
<rect width="95" height="168.994" rx="18" fill="url(#paint0_linear_178_336)" fill-opacity="0.4"/>
<path d="M22 168.994H74V180C74 183.314 71.3137 186 68 186H28C24.6863 186 22 183.314 22 180V168.994Z" fill="#D9D9D9"/>
<path d="M36.8709 177.024V178.212H35.0889V179.994H33.9009V178.212H32.1189V177.024H33.9009V175.242H35.0889V177.024H36.8709ZM43.0823 178.608V179.994H38.4113V178.608H39.8783V175.809H38.4113V174.765C38.8133 174.741 39.2633 174.636 39.7613 174.45C40.2593 174.258 40.6943 174.039 41.0663 173.793H41.6693V178.608H43.0823ZM46.4752 173.694C47.4412 173.694 48.1192 173.97 48.5092 174.522C48.9052 175.068 49.1032 175.86 49.1032 176.898C49.1032 177.936 48.9052 178.731 48.5092 179.283C48.1192 179.829 47.4412 180.102 46.4752 180.102C45.5032 180.102 44.8192 179.829 44.4232 179.283C44.0332 178.731 43.8382 177.936 43.8382 176.898C43.8382 175.86 44.0332 175.068 44.4232 174.522C44.8192 173.97 45.5032 173.694 46.4752 173.694ZM46.4752 174.909C46.1632 174.909 45.9412 175.029 45.8092 175.269C45.6772 175.509 45.6112 175.902 45.6112 176.448V177.339C45.6112 177.891 45.6772 178.287 45.8092 178.527C45.9412 178.767 46.1632 178.887 46.4752 178.887C46.7872 178.887 47.0062 178.767 47.1322 178.527C47.2582 178.287 47.3212 177.891 47.3212 177.339V176.448C47.3212 175.896 47.2582 175.503 47.1322 175.269C47.0062 175.029 46.7872 174.909 46.4752 174.909ZM55.0882 178.608V179.994H50.4172V178.608H51.8842V175.809H50.4172V174.765C50.8192 174.741 51.2692 174.636 51.7672 174.45C52.2652 174.258 52.7002 174.039 53.0722 173.793H53.6752V178.608H55.0882ZM57.5451 173.694C58.1091 173.694 58.5231 173.838 58.7871 174.126C59.0571 174.408 59.1921 174.804 59.1921 175.314C59.1921 175.812 59.0571 176.205 58.7871 176.493C58.5231 176.775 58.1091 176.916 57.5451 176.916C56.9811 176.916 56.5641 176.775 56.2941 176.493C56.0241 176.205 55.8891 175.812 55.8891 175.314C55.8891 174.804 56.0241 174.408 56.2941 174.126C56.5641 173.838 56.9811 173.694 57.5451 173.694ZM57.5541 179.994L61.3251 173.811H62.3061L58.5531 179.994H57.5541ZM57.5451 174.378C57.3591 174.378 57.2211 174.45 57.1311 174.594C57.0471 174.732 57.0051 174.921 57.0051 175.161V175.449C57.0051 175.689 57.0471 175.881 57.1311 176.025C57.2211 176.163 57.3591 176.232 57.5451 176.232C57.8991 176.232 58.0761 175.971 58.0761 175.449V175.161C58.0761 174.639 57.8991 174.378 57.5451 174.378ZM62.3331 176.88C62.8971 176.88 63.3111 177.024 63.5751 177.312C63.8451 177.594 63.9801 177.99 63.9801 178.5C63.9801 178.998 63.8451 179.391 63.5751 179.679C63.3111 179.961 62.8971 180.102 62.3331 180.102C61.7691 180.102 61.3521 179.961 61.0821 179.679C60.8121 179.391 60.6771 178.998 60.6771 178.5C60.6771 177.99 60.8121 177.594 61.0821 177.312C61.3521 177.024 61.7691 176.88 62.3331 176.88ZM62.3331 177.564C62.1471 177.564 62.0091 177.636 61.9191 177.78C61.8351 177.918 61.7931 178.107 61.7931 178.347V178.635C61.7931 178.875 61.8351 179.067 61.9191 179.211C62.0091 179.349 62.1471 179.418 62.3331 179.418C62.6871 179.418 62.8641 179.157 62.8641 178.635V178.347C62.8641 177.825 62.6871 177.564 62.3331 177.564Z" fill="black"/>
<path d="M36.0902 109.762C35.4835 109.762 34.9608 109.627 34.5222 109.356C34.0928 109.086 33.7568 108.666 33.5142 108.096C33.2808 107.518 33.1642 106.771 33.1642 105.856C33.1642 104.988 33.2855 104.274 33.5282 103.714C33.7708 103.154 34.1068 102.739 34.5362 102.468C34.9655 102.198 35.4648 102.062 36.0342 102.062C36.3608 102.062 36.6642 102.1 36.9442 102.174C37.2242 102.249 37.4715 102.366 37.6862 102.524C37.9102 102.683 38.1062 102.893 38.2742 103.154H38.3582V99.4722H39.5902V109.594H38.5962L38.4842 108.544H38.3862C38.1342 108.955 37.8075 109.263 37.4062 109.468C37.0048 109.664 36.5662 109.762 36.0902 109.762ZM36.3842 108.684C36.8508 108.684 37.2288 108.582 37.5182 108.376C37.8075 108.171 38.0175 107.872 38.1482 107.48C38.2882 107.088 38.3582 106.603 38.3582 106.024V105.8C38.3582 105.296 38.3068 104.872 38.2042 104.526C38.1015 104.181 37.9615 103.906 37.7842 103.7C37.6068 103.495 37.4015 103.35 37.1682 103.266C36.9348 103.182 36.6875 103.14 36.4262 103.14C35.9688 103.14 35.5955 103.234 35.3062 103.42C35.0168 103.598 34.8022 103.882 34.6622 104.274C34.5222 104.657 34.4522 105.156 34.4522 105.772V106.066C34.4522 106.701 34.5268 107.214 34.6762 107.606C34.8255 107.989 35.0402 108.264 35.3202 108.432C35.6095 108.6 35.9642 108.684 36.3842 108.684ZM43.3755 109.762C43.1049 109.762 42.8342 109.73 42.5635 109.664C42.2929 109.599 42.0409 109.492 41.8075 109.342C41.5742 109.193 41.3875 108.988 41.2475 108.726C41.1075 108.456 41.0375 108.12 41.0375 107.718C41.0375 107.214 41.1589 106.799 41.4015 106.472C41.6442 106.146 41.9802 105.894 42.4095 105.716C42.8482 105.53 43.3662 105.404 43.9635 105.338C44.5609 105.264 45.2095 105.226 45.9095 105.226V104.386C45.9095 104.116 45.8629 103.882 45.7695 103.686C45.6762 103.49 45.5082 103.341 45.2655 103.238C45.0322 103.126 44.6962 103.07 44.2575 103.07C43.8375 103.07 43.5015 103.126 43.2495 103.238C43.0069 103.341 42.8342 103.476 42.7315 103.644C42.6382 103.812 42.5915 103.999 42.5915 104.204V104.414H41.4015C41.3922 104.368 41.3875 104.321 41.3875 104.274C41.3875 104.228 41.3875 104.172 41.3875 104.106C41.3875 103.658 41.5089 103.285 41.7515 102.986C42.0035 102.678 42.3535 102.45 42.8015 102.3C43.2495 102.142 43.7629 102.062 44.3415 102.062C44.9575 102.062 45.4709 102.151 45.8815 102.328C46.3015 102.506 46.6142 102.758 46.8195 103.084C47.0342 103.411 47.1415 103.803 47.1415 104.26V108.25C47.1415 108.428 47.1835 108.554 47.2675 108.628C47.3515 108.694 47.4542 108.726 47.5755 108.726H48.1215V109.538C47.9909 109.594 47.8462 109.641 47.6875 109.678C47.5289 109.725 47.3469 109.748 47.1415 109.748C46.8989 109.748 46.6982 109.697 46.5395 109.594C46.3809 109.501 46.2595 109.37 46.1755 109.202C46.0915 109.025 46.0355 108.829 46.0075 108.614H45.9095C45.7415 108.848 45.5269 109.053 45.2655 109.23C45.0135 109.398 44.7289 109.529 44.4115 109.622C44.0942 109.716 43.7489 109.762 43.3755 109.762ZM43.6835 108.726C43.9822 108.726 44.2622 108.68 44.5235 108.586C44.7942 108.493 45.0322 108.362 45.2375 108.194C45.4429 108.017 45.6062 107.807 45.7275 107.564C45.8489 107.322 45.9095 107.056 45.9095 106.766V106.15C45.1535 106.15 44.5095 106.192 43.9775 106.276C43.4455 106.36 43.0349 106.51 42.7455 106.724C42.4655 106.939 42.3255 107.242 42.3255 107.634C42.3255 107.886 42.3815 108.092 42.4935 108.25C42.6055 108.409 42.7642 108.53 42.9695 108.614C43.1749 108.689 43.4129 108.726 43.6835 108.726ZM49.7864 112.142C49.5624 112.142 49.3664 112.124 49.1984 112.086C49.0398 112.058 48.9324 112.04 48.8764 112.03V111.134H49.4924C49.7164 111.134 49.9358 111.088 50.1504 110.994C50.3651 110.901 50.5658 110.742 50.7524 110.518C50.9391 110.294 51.0978 109.986 51.2284 109.594L48.3724 102.23H49.6604L51.1304 106.024C51.1958 106.202 51.2704 106.421 51.3544 106.682C51.4478 106.934 51.5364 107.196 51.6204 107.466C51.7138 107.737 51.7884 107.975 51.8444 108.18H51.9284C51.9658 108.031 52.0124 107.863 52.0684 107.676C52.1244 107.49 52.1804 107.298 52.2364 107.102C52.3018 106.897 52.3624 106.706 52.4184 106.528C52.4838 106.342 52.5351 106.178 52.5724 106.038L53.8184 102.23H55.0644L52.5724 109.384C52.4324 109.786 52.2784 110.154 52.1104 110.49C51.9424 110.836 51.7558 111.13 51.5504 111.372C51.3451 111.615 51.0978 111.802 50.8084 111.932C50.5191 112.072 50.1784 112.142 49.7864 112.142ZM58.7871 109.762C58.2831 109.762 57.8398 109.711 57.4571 109.608C57.0745 109.506 56.7571 109.356 56.5051 109.16C56.2531 108.964 56.0618 108.731 55.9311 108.46C55.8005 108.19 55.7351 107.882 55.7351 107.536C55.7351 107.49 55.7351 107.448 55.7351 107.41C55.7351 107.364 55.7398 107.326 55.7491 107.298H56.9671C56.9578 107.336 56.9531 107.368 56.9531 107.396C56.9531 107.424 56.9531 107.452 56.9531 107.48C56.9625 107.807 57.0465 108.064 57.2051 108.25C57.3731 108.437 57.6018 108.568 57.8911 108.642C58.1805 108.717 58.5025 108.754 58.8571 108.754C59.1651 108.754 59.4498 108.717 59.7111 108.642C59.9725 108.558 60.1778 108.437 60.3271 108.278C60.4858 108.11 60.5651 107.9 60.5651 107.648C60.5651 107.34 60.4625 107.107 60.2571 106.948C60.0611 106.78 59.7998 106.65 59.4731 106.556C59.1465 106.463 58.8058 106.365 58.4511 106.262C58.1525 106.178 57.8538 106.085 57.5551 105.982C57.2565 105.88 56.9858 105.754 56.7431 105.604C56.5098 105.455 56.3185 105.264 56.1691 105.03C56.0291 104.788 55.9591 104.484 55.9591 104.12C55.9591 103.794 56.0245 103.504 56.1551 103.252C56.2951 103 56.4911 102.786 56.7431 102.608C56.9951 102.431 57.2985 102.3 57.6531 102.216C58.0171 102.123 58.4185 102.076 58.8571 102.076C59.3238 102.076 59.7298 102.128 60.0751 102.23C60.4298 102.333 60.7238 102.478 60.9571 102.664C61.1905 102.851 61.3631 103.066 61.4751 103.308C61.5871 103.542 61.6431 103.794 61.6431 104.064C61.6431 104.12 61.6431 104.176 61.6431 104.232C61.6431 104.279 61.6385 104.316 61.6291 104.344H60.4251V104.19C60.4251 104.004 60.3738 103.826 60.2711 103.658C60.1778 103.481 60.0098 103.341 59.7671 103.238C59.5338 103.126 59.2071 103.07 58.7871 103.07C58.5165 103.07 58.2831 103.094 58.0871 103.14C57.8911 103.178 57.7278 103.243 57.5971 103.336C57.4665 103.42 57.3685 103.523 57.3031 103.644C57.2378 103.756 57.2051 103.887 57.2051 104.036C57.2051 104.279 57.2845 104.466 57.4431 104.596C57.6018 104.727 57.8118 104.834 58.0731 104.918C58.3438 105.002 58.6331 105.096 58.9411 105.198C59.2678 105.292 59.5991 105.39 59.9351 105.492C60.2805 105.586 60.5931 105.707 60.8731 105.856C61.1625 106.006 61.3911 106.211 61.5591 106.472C61.7365 106.724 61.8251 107.06 61.8251 107.48C61.8251 107.872 61.7505 108.213 61.6011 108.502C61.4518 108.792 61.2371 109.03 60.9571 109.216C60.6865 109.403 60.3645 109.538 59.9911 109.622C59.6271 109.716 59.2258 109.762 58.7871 109.762Z" fill="#515151"/>
<path d="M40.1282 69.2228C41.4402 69.2228 42.5762 69.4228 43.5362 69.8228C44.5122 70.2228 45.2482 70.7668 45.7442 71.4548C46.2562 72.1268 46.5122 72.8788 46.5122 73.7108C46.5122 74.5428 46.2882 75.2948 45.8402 75.9668C45.3922 76.6228 44.8162 77.0868 44.1122 77.3588V77.4548C45.0242 77.7428 45.7282 78.2468 46.2242 78.9668C46.7362 79.6708 46.9922 80.5268 46.9922 81.5348C46.9282 82.9428 46.3122 84.0948 45.1442 84.9908C43.9922 85.8708 42.2882 86.3108 40.0322 86.3108C38.4802 86.3108 37.1762 86.1028 36.1202 85.6868C35.0642 85.2708 34.2802 84.7028 33.7682 83.9828C33.2562 83.2628 33.0002 82.4548 33.0002 81.5588V81.0548H37.2242C37.2242 82.3668 38.0562 83.0228 39.7202 83.0228C41.3842 83.0228 42.2162 82.2868 42.2162 80.8148C42.2162 80.2548 42.0562 79.8308 41.7362 79.5428C41.4322 79.2388 41.0322 79.0868 40.5362 79.0868H38.7842V76.1348H40.1522C40.6482 76.1348 41.0482 75.9908 41.3522 75.7028C41.6722 75.3988 41.8322 74.9668 41.8322 74.4068C41.8322 73.8788 41.6402 73.4308 41.2562 73.0628C40.8882 72.6948 40.3762 72.5108 39.7202 72.5108C39.0322 72.5108 38.4962 72.6868 38.1122 73.0388C37.7282 73.3908 37.5362 73.8228 37.5362 74.3348H33.5282V73.7348C33.5282 72.9028 33.7842 72.1428 34.2962 71.4548C34.8242 70.7668 35.5842 70.2228 36.5762 69.8228C37.5842 69.4228 38.7682 69.2228 40.1282 69.2228ZM56.016 69.2228C58.592 69.2228 60.4 69.9588 61.44 71.4308C62.496 72.8868 63.024 74.9988 63.024 77.7668C63.024 80.5348 62.496 82.6548 61.44 84.1268C60.4 85.5828 58.592 86.3108 56.016 86.3108C53.424 86.3108 51.6 85.5828 50.544 84.1268C49.504 82.6548 48.984 80.5348 48.984 77.7668C48.984 74.9988 49.504 72.8868 50.544 71.4308C51.6 69.9588 53.424 69.2228 56.016 69.2228ZM56.016 72.4628C55.184 72.4628 54.592 72.7828 54.24 73.4228C53.888 74.0628 53.712 75.1108 53.712 76.5668V78.9428C53.712 80.4148 53.888 81.4708 54.24 82.1108C54.592 82.7508 55.184 83.0708 56.016 83.0708C56.848 83.0708 57.432 82.7508 57.768 82.1108C58.104 81.4708 58.272 80.4148 58.272 78.9428V76.5668C58.272 75.0948 58.104 74.0468 57.768 73.4228C57.432 72.7828 56.848 72.4628 56.016 72.4628Z" fill="black"/>
<defs>
<linearGradient id="paint0_linear_178_336" x1="47.5" y1="0" x2="47.5" y2="168.994" gradientUnits="userSpaceOnUse">
<stop stop-color="#9C9C9C"/>
<stop offset="1" stop-color="#313131"/>
</linearGradient>
</defs>
</svg>
