<svg width="91" height="88" viewBox="0 0 91 88" fill="none" xmlns="http://www.w3.org/2000/svg">
<rect width="91" height="88" rx="16" fill="#EEEEEE" fill-opacity="0.6"/>
<g clip-path="url(#clip0_155_328)">
<path d="M53.3806 27.3969C51.1115 31.9666 48.8364 36.5331 46.563 41.1007C43.324 47.6079 40.0864 54.1159 36.8443 60.6217C36.6869 60.9374 36.5262 61.2617 36.3081 61.5351C35.8276 62.1374 35.2319 62.1506 34.6949 61.5969C34.5456 61.4431 34.4173 61.2637 34.3047 61.0805C31.9207 57.1974 30.6622 52.9892 30.631 48.4135C30.6055 44.6977 31.3846 41.1824 33.0534 37.8579C35.0242 33.9323 36.972 29.9949 38.9045 26.05C39.2744 25.295 39.7996 24.9868 40.6271 25.0006C42.5518 25.0328 44.4776 25.0109 46.4028 25.0109C48.3281 25.0109 50.1748 25.0129 52.0605 25.0218C52.3923 25.0236 52.7313 25.0469 53.0537 25.1205C53.6941 25.2662 53.9709 25.7182 53.8012 26.3602C53.7067 26.7181 53.5462 27.0634 53.3806 27.3969Z" fill="url(#paint0_linear_155_328)"/>
<path d="M73.6164 27.3968C71.3474 31.9665 69.0722 36.533 66.7989 41.1006C63.5598 47.6078 60.3223 54.1158 57.0801 60.6216C56.9228 60.9372 56.762 61.2615 56.544 61.535C56.0635 62.1373 55.4677 62.1505 54.9308 61.5968C54.7815 61.443 54.6531 61.2636 54.5405 61.0804C52.1565 57.1973 50.898 52.9891 50.8668 48.4134C50.8413 44.6976 51.6204 41.1823 53.2892 37.8578C55.26 33.9322 57.2079 29.9947 59.1403 26.0498C59.5102 25.2949 60.0354 24.9866 60.863 25.0004C62.7876 25.0326 64.7134 25.0108 66.6387 25.0108C68.5639 25.0108 70.4107 25.0128 72.2964 25.0217C72.6282 25.0234 72.9671 25.0467 73.2895 25.1203C73.9299 25.2661 74.2067 25.7181 74.0371 26.3601C73.9425 26.718 73.7821 27.0633 73.6164 27.3968Z" fill="url(#paint1_linear_155_328)"/>
<path d="M30.5513 35.1419C29.9203 37.6898 28.8137 39.9907 27.1094 41.9906C26.9062 42.2289 26.6905 42.4673 26.4415 42.6524C25.9457 43.0207 25.4698 42.9299 25.1205 42.4265C24.9982 42.2496 24.905 42.0513 24.8082 41.858C22.3119 36.8767 19.8161 31.8953 17.3235 26.9119C17.2098 26.6845 17.1012 26.4476 17.0376 26.2027C16.9012 25.6768 17.143 25.257 17.6683 25.1153C17.911 25.05 18.172 25.0308 18.425 25.0285C19.4067 25.0187 20.3886 25.0244 21.3703 25.0244C22.352 25.0244 23.4159 25.0138 24.4308 25.0894C27.7759 25.3387 29.9819 27.332 30.6441 30.632C30.947 32.1423 30.9232 33.6405 30.5513 35.1419Z" fill="url(#paint2_linear_155_328)"/>
</g>
<defs>
<linearGradient id="paint0_linear_155_328" x1="25.9384" y1="67.847" x2="40.6911" y2="37.9774" gradientUnits="userSpaceOnUse">
<stop stop-color="white"/>
<stop offset="0.28" stop-color="#B0B0B0"/>
<stop offset="0.63" stop-color="#525252"/>
<stop offset="0.88" stop-color="#161616"/>
<stop offset="1"/>
</linearGradient>
<linearGradient id="paint1_linear_155_328" x1="46.1742" y1="67.8469" x2="60.927" y2="37.9773" gradientUnits="userSpaceOnUse">
<stop stop-color="white"/>
<stop offset="0.28" stop-color="#B0B0B0"/>
<stop offset="0.63" stop-color="#525252"/>
<stop offset="0.88" stop-color="#161616"/>
<stop offset="1"/>
</linearGradient>
<linearGradient id="paint2_linear_155_328" x1="17.9164" y1="43.0196" x2="23.9895" y2="30.5271" gradientUnits="userSpaceOnUse">
<stop stop-color="white"/>
<stop offset="0.11" stop-color="#CACACA"/>
<stop offset="0.24" stop-color="#959595"/>
<stop offset="0.37" stop-color="#676767"/>
<stop offset="0.5" stop-color="#424242"/>
<stop offset="0.63" stop-color="#252525"/>
<stop offset="0.75" stop-color="#101010"/>
<stop offset="0.88" stop-color="#040404"/>
<stop offset="1"/>
</linearGradient>
<clipPath id="clip0_155_328">
<rect width="57" height="37" fill="white" transform="translate(17 25)"/>
</clipPath>
</defs>
</svg>
