<svg width="95" height="186" viewBox="0 0 95 186" fill="none" xmlns="http://www.w3.org/2000/svg">
<rect width="95" height="168.994" rx="18" fill="url(#paint0_linear_178_335)" fill-opacity="0.4"/>
<path d="M21 168.994H73V180C73 183.314 70.3137 186 67 186H27C23.6863 186 21 183.314 21 180V168.994Z" fill="#D9D9D9"/>
<path d="M38.8724 177.024V178.212H37.0904V179.994H35.9024V178.212H34.1204V177.024H35.9024V175.242H37.0904V177.024H38.8724ZM43.1668 173.694C43.1248 174.006 42.9808 174.396 42.7348 174.864C42.4888 175.326 42.1948 175.791 41.8528 176.259C41.5168 176.721 41.2018 177.102 40.9078 177.402H42.6898V176.115C42.8758 175.851 43.0648 175.539 43.2568 175.179C43.4488 174.819 43.5748 174.522 43.6348 174.288H44.3998V177.402H45.2638V178.725H44.3998V179.994H42.6898V178.725H39.6748V177.384C39.9988 176.916 40.3198 176.349 40.6378 175.683C40.9558 175.017 41.2108 174.354 41.4028 173.694H43.1668ZM48.4767 173.694C49.4427 173.694 50.1207 173.97 50.5107 174.522C50.9067 175.068 51.1047 175.86 51.1047 176.898C51.1047 177.936 50.9067 178.731 50.5107 179.283C50.1207 179.829 49.4427 180.102 48.4767 180.102C47.5047 180.102 46.8207 179.829 46.4247 179.283C46.0347 178.731 45.8397 177.936 45.8397 176.898C45.8397 175.86 46.0347 175.068 46.4247 174.522C46.8207 173.97 47.5047 173.694 48.4767 173.694ZM48.4767 174.909C48.1647 174.909 47.9427 175.029 47.8107 175.269C47.6787 175.509 47.6127 175.902 47.6127 176.448V177.339C47.6127 177.891 47.6787 178.287 47.8107 178.527C47.9427 178.767 48.1647 178.887 48.4767 178.887C48.7887 178.887 49.0077 178.767 49.1337 178.527C49.2597 178.287 49.3227 177.891 49.3227 177.339V176.448C49.3227 175.896 49.2597 175.503 49.1337 175.269C49.0077 175.029 48.7887 174.909 48.4767 174.909ZM53.5436 173.694C54.1076 173.694 54.5216 173.838 54.7856 174.126C55.0556 174.408 55.1906 174.804 55.1906 175.314C55.1906 175.812 55.0556 176.205 54.7856 176.493C54.5216 176.775 54.1076 176.916 53.5436 176.916C52.9796 176.916 52.5626 176.775 52.2926 176.493C52.0226 176.205 51.8876 175.812 51.8876 175.314C51.8876 174.804 52.0226 174.408 52.2926 174.126C52.5626 173.838 52.9796 173.694 53.5436 173.694ZM53.5526 179.994L57.3236 173.811H58.3046L54.5516 179.994H53.5526ZM53.5436 174.378C53.3576 174.378 53.2196 174.45 53.1296 174.594C53.0456 174.732 53.0036 174.921 53.0036 175.161V175.449C53.0036 175.689 53.0456 175.881 53.1296 176.025C53.2196 176.163 53.3576 176.232 53.5436 176.232C53.8976 176.232 54.0746 175.971 54.0746 175.449V175.161C54.0746 174.639 53.8976 174.378 53.5436 174.378ZM58.3316 176.88C58.8956 176.88 59.3096 177.024 59.5736 177.312C59.8436 177.594 59.9786 177.99 59.9786 178.5C59.9786 178.998 59.8436 179.391 59.5736 179.679C59.3096 179.961 58.8956 180.102 58.3316 180.102C57.7676 180.102 57.3506 179.961 57.0806 179.679C56.8106 179.391 56.6756 178.998 56.6756 178.5C56.6756 177.99 56.8106 177.594 57.0806 177.312C57.3506 177.024 57.7676 176.88 58.3316 176.88ZM58.3316 177.564C58.1456 177.564 58.0076 177.636 57.9176 177.78C57.8336 177.918 57.7916 178.107 57.7916 178.347V178.635C57.7916 178.875 57.8336 179.067 57.9176 179.211C58.0076 179.349 58.1456 179.418 58.3316 179.418C58.6856 179.418 58.8626 179.157 58.8626 178.635V178.347C58.8626 177.825 58.6856 177.564 58.3316 177.564Z" fill="black"/>
<path d="M36.0902 109.762C35.4835 109.762 34.9608 109.627 34.5222 109.356C34.0928 109.086 33.7568 108.666 33.5142 108.096C33.2808 107.518 33.1642 106.771 33.1642 105.856C33.1642 104.988 33.2855 104.274 33.5282 103.714C33.7708 103.154 34.1068 102.739 34.5362 102.468C34.9655 102.198 35.4648 102.062 36.0342 102.062C36.3608 102.062 36.6642 102.1 36.9442 102.174C37.2242 102.249 37.4715 102.366 37.6862 102.524C37.9102 102.683 38.1062 102.893 38.2742 103.154H38.3582V99.4722H39.5902V109.594H38.5962L38.4842 108.544H38.3862C38.1342 108.955 37.8075 109.263 37.4062 109.468C37.0048 109.664 36.5662 109.762 36.0902 109.762ZM36.3842 108.684C36.8508 108.684 37.2288 108.582 37.5182 108.376C37.8075 108.171 38.0175 107.872 38.1482 107.48C38.2882 107.088 38.3582 106.603 38.3582 106.024V105.8C38.3582 105.296 38.3068 104.872 38.2042 104.526C38.1015 104.181 37.9615 103.906 37.7842 103.7C37.6068 103.495 37.4015 103.35 37.1682 103.266C36.9348 103.182 36.6875 103.14 36.4262 103.14C35.9688 103.14 35.5955 103.234 35.3062 103.42C35.0168 103.598 34.8022 103.882 34.6622 104.274C34.5222 104.657 34.4522 105.156 34.4522 105.772V106.066C34.4522 106.701 34.5268 107.214 34.6762 107.606C34.8255 107.989 35.0402 108.264 35.3202 108.432C35.6095 108.6 35.9642 108.684 36.3842 108.684ZM43.3755 109.762C43.1049 109.762 42.8342 109.73 42.5635 109.664C42.2929 109.599 42.0409 109.492 41.8075 109.342C41.5742 109.193 41.3875 108.988 41.2475 108.726C41.1075 108.456 41.0375 108.12 41.0375 107.718C41.0375 107.214 41.1589 106.799 41.4015 106.472C41.6442 106.146 41.9802 105.894 42.4095 105.716C42.8482 105.53 43.3662 105.404 43.9635 105.338C44.5609 105.264 45.2095 105.226 45.9095 105.226V104.386C45.9095 104.116 45.8629 103.882 45.7695 103.686C45.6762 103.49 45.5082 103.341 45.2655 103.238C45.0322 103.126 44.6962 103.07 44.2575 103.07C43.8375 103.07 43.5015 103.126 43.2495 103.238C43.0069 103.341 42.8342 103.476 42.7315 103.644C42.6382 103.812 42.5915 103.999 42.5915 104.204V104.414H41.4015C41.3922 104.368 41.3875 104.321 41.3875 104.274C41.3875 104.228 41.3875 104.172 41.3875 104.106C41.3875 103.658 41.5089 103.285 41.7515 102.986C42.0035 102.678 42.3535 102.45 42.8015 102.3C43.2495 102.142 43.7629 102.062 44.3415 102.062C44.9575 102.062 45.4709 102.151 45.8815 102.328C46.3015 102.506 46.6142 102.758 46.8195 103.084C47.0342 103.411 47.1415 103.803 47.1415 104.26V108.25C47.1415 108.428 47.1835 108.554 47.2675 108.628C47.3515 108.694 47.4542 108.726 47.5755 108.726H48.1215V109.538C47.9909 109.594 47.8462 109.641 47.6875 109.678C47.5289 109.725 47.3469 109.748 47.1415 109.748C46.8989 109.748 46.6982 109.697 46.5395 109.594C46.3809 109.501 46.2595 109.37 46.1755 109.202C46.0915 109.025 46.0355 108.829 46.0075 108.614H45.9095C45.7415 108.848 45.5269 109.053 45.2655 109.23C45.0135 109.398 44.7289 109.529 44.4115 109.622C44.0942 109.716 43.7489 109.762 43.3755 109.762ZM43.6835 108.726C43.9822 108.726 44.2622 108.68 44.5235 108.586C44.7942 108.493 45.0322 108.362 45.2375 108.194C45.4429 108.017 45.6062 107.807 45.7275 107.564C45.8489 107.322 45.9095 107.056 45.9095 106.766V106.15C45.1535 106.15 44.5095 106.192 43.9775 106.276C43.4455 106.36 43.0349 106.51 42.7455 106.724C42.4655 106.939 42.3255 107.242 42.3255 107.634C42.3255 107.886 42.3815 108.092 42.4935 108.25C42.6055 108.409 42.7642 108.53 42.9695 108.614C43.1749 108.689 43.4129 108.726 43.6835 108.726ZM49.7864 112.142C49.5624 112.142 49.3664 112.124 49.1984 112.086C49.0398 112.058 48.9324 112.04 48.8764 112.03V111.134H49.4924C49.7164 111.134 49.9358 111.088 50.1504 110.994C50.3651 110.901 50.5658 110.742 50.7524 110.518C50.9391 110.294 51.0978 109.986 51.2284 109.594L48.3724 102.23H49.6604L51.1304 106.024C51.1958 106.202 51.2704 106.421 51.3544 106.682C51.4478 106.934 51.5364 107.196 51.6204 107.466C51.7138 107.737 51.7884 107.975 51.8444 108.18H51.9284C51.9658 108.031 52.0124 107.863 52.0684 107.676C52.1244 107.49 52.1804 107.298 52.2364 107.102C52.3018 106.897 52.3624 106.706 52.4184 106.528C52.4838 106.342 52.5351 106.178 52.5724 106.038L53.8184 102.23H55.0644L52.5724 109.384C52.4324 109.786 52.2784 110.154 52.1104 110.49C51.9424 110.836 51.7558 111.13 51.5504 111.372C51.3451 111.615 51.0978 111.802 50.8084 111.932C50.5191 112.072 50.1784 112.142 49.7864 112.142ZM58.7871 109.762C58.2831 109.762 57.8398 109.711 57.4571 109.608C57.0745 109.506 56.7571 109.356 56.5051 109.16C56.2531 108.964 56.0618 108.731 55.9311 108.46C55.8005 108.19 55.7351 107.882 55.7351 107.536C55.7351 107.49 55.7351 107.448 55.7351 107.41C55.7351 107.364 55.7398 107.326 55.7491 107.298H56.9671C56.9578 107.336 56.9531 107.368 56.9531 107.396C56.9531 107.424 56.9531 107.452 56.9531 107.48C56.9625 107.807 57.0465 108.064 57.2051 108.25C57.3731 108.437 57.6018 108.568 57.8911 108.642C58.1805 108.717 58.5025 108.754 58.8571 108.754C59.1651 108.754 59.4498 108.717 59.7111 108.642C59.9725 108.558 60.1778 108.437 60.3271 108.278C60.4858 108.11 60.5651 107.9 60.5651 107.648C60.5651 107.34 60.4625 107.107 60.2571 106.948C60.0611 106.78 59.7998 106.65 59.4731 106.556C59.1465 106.463 58.8058 106.365 58.4511 106.262C58.1525 106.178 57.8538 106.085 57.5551 105.982C57.2565 105.88 56.9858 105.754 56.7431 105.604C56.5098 105.455 56.3185 105.264 56.1691 105.03C56.0291 104.788 55.9591 104.484 55.9591 104.12C55.9591 103.794 56.0245 103.504 56.1551 103.252C56.2951 103 56.4911 102.786 56.7431 102.608C56.9951 102.431 57.2985 102.3 57.6531 102.216C58.0171 102.123 58.4185 102.076 58.8571 102.076C59.3238 102.076 59.7298 102.128 60.0751 102.23C60.4298 102.333 60.7238 102.478 60.9571 102.664C61.1905 102.851 61.3631 103.066 61.4751 103.308C61.5871 103.542 61.6431 103.794 61.6431 104.064C61.6431 104.12 61.6431 104.176 61.6431 104.232C61.6431 104.279 61.6385 104.316 61.6291 104.344H60.4251V104.19C60.4251 104.004 60.3738 103.826 60.2711 103.658C60.1778 103.481 60.0098 103.341 59.7671 103.238C59.5338 103.126 59.2071 103.07 58.7871 103.07C58.5165 103.07 58.2831 103.094 58.0871 103.14C57.8911 103.178 57.7278 103.243 57.5971 103.336C57.4665 103.42 57.3685 103.523 57.3031 103.644C57.2378 103.756 57.2051 103.887 57.2051 104.036C57.2051 104.279 57.2845 104.466 57.4431 104.596C57.6018 104.727 57.8118 104.834 58.0731 104.918C58.3438 105.002 58.6331 105.096 58.9411 105.198C59.2678 105.292 59.5991 105.39 59.9351 105.492C60.2805 105.586 60.5931 105.707 60.8731 105.856C61.1625 106.006 61.3911 106.211 61.5591 106.472C61.7365 106.724 61.8251 107.06 61.8251 107.48C61.8251 107.872 61.7505 108.213 61.6011 108.502C61.4518 108.792 61.2371 109.03 60.9571 109.216C60.6865 109.403 60.3645 109.538 59.9911 109.622C59.6271 109.716 59.2258 109.762 58.7871 109.762Z" fill="#515151"/>
<path d="M46.4682 82.3268V86.0228H34.0122V82.3268H37.9242V74.8628H34.0122V72.0788C35.0842 72.0148 36.2842 71.7348 37.6122 71.2388C38.9402 70.7268 40.1002 70.1428 41.0922 69.4868H42.7002V82.3268H46.4682ZM57.364 69.2228C57.252 70.0548 56.868 71.0948 56.212 72.3428C55.556 73.5748 54.772 74.8148 53.86 76.0628C52.964 77.2948 52.124 78.3108 51.34 79.1108H56.092V75.6788C56.588 74.9748 57.092 74.1428 57.604 73.1828C58.116 72.2228 58.452 71.4308 58.612 70.8068H60.652V79.1108H62.956V82.6388H60.652V86.0228H56.092V82.6388H48.052V79.0628C48.916 77.8148 49.772 76.3028 50.62 74.5268C51.468 72.7508 52.148 70.9828 52.66 69.2228H57.364Z" fill="black"/>
<defs>
<linearGradient id="paint0_linear_178_335" x1="47.5" y1="0" x2="47.5" y2="168.994" gradientUnits="userSpaceOnUse">
<stop stop-color="#9C9C9C"/>
<stop offset="1" stop-color="#313131"/>
</linearGradient>
</defs>
</svg>
