<svg width="95" height="174" viewBox="0 0 95 174" fill="none" xmlns="http://www.w3.org/2000/svg">
<path d="M33.9602 106.192C33.2669 106.192 32.6695 106.037 32.1682 105.728C31.6775 105.419 31.2935 104.939 31.0162 104.288C30.7495 103.627 30.6162 102.773 30.6162 101.728C30.6162 100.736 30.7549 99.92 31.0322 99.28C31.3095 98.64 31.6935 98.1653 32.1842 97.856C32.6749 97.5467 33.2455 97.392 33.8962 97.392C34.2695 97.392 34.6162 97.4347 34.9362 97.52C35.2562 97.6053 35.5389 97.7387 35.7842 97.92C36.0402 98.1013 36.2642 98.3413 36.4562 98.64H36.5522V94.432H37.9602V106H36.8242L36.6962 104.8H36.5842C36.2962 105.269 35.9229 105.621 35.4642 105.856C35.0055 106.08 34.5042 106.192 33.9602 106.192ZM34.2962 104.96C34.8295 104.96 35.2615 104.843 35.5922 104.608C35.9229 104.373 36.1629 104.032 36.3122 103.584C36.4722 103.136 36.5522 102.581 36.5522 101.92V101.664C36.5522 101.088 36.4935 100.603 36.3762 100.208C36.2589 99.8133 36.0989 99.4987 35.8962 99.264C35.6935 99.0293 35.4589 98.864 35.1922 98.768C34.9255 98.672 34.6429 98.624 34.3442 98.624C33.8215 98.624 33.3949 98.7307 33.0642 98.944C32.7335 99.1467 32.4882 99.472 32.3282 99.92C32.1682 100.357 32.0882 100.928 32.0882 101.632V101.968C32.0882 102.693 32.1735 103.28 32.3442 103.728C32.5149 104.165 32.7602 104.48 33.0802 104.672C33.4109 104.864 33.8162 104.96 34.2962 104.96ZM42.2863 106.192C41.977 106.192 41.6676 106.155 41.3583 106.08C41.049 106.005 40.761 105.883 40.4943 105.712C40.2276 105.541 40.0143 105.307 39.8543 105.008C39.6943 104.699 39.6143 104.315 39.6143 103.856C39.6143 103.28 39.753 102.805 40.0303 102.432C40.3076 102.059 40.6916 101.771 41.1823 101.568C41.6836 101.355 42.2756 101.211 42.9583 101.136C43.641 101.051 44.3823 101.008 45.1823 101.008V100.048C45.1823 99.7387 45.129 99.472 45.0223 99.248C44.9156 99.024 44.7236 98.8533 44.4463 98.736C44.1796 98.608 43.7956 98.544 43.2943 98.544C42.8143 98.544 42.4303 98.608 42.1423 98.736C41.865 98.8533 41.6676 99.008 41.5503 99.2C41.4436 99.392 41.3903 99.6053 41.3903 99.84V100.08H40.0303C40.0196 100.027 40.0143 99.9733 40.0143 99.92C40.0143 99.8667 40.0143 99.8027 40.0143 99.728C40.0143 99.216 40.153 98.7893 40.4303 98.448C40.7183 98.096 41.1183 97.8347 41.6303 97.664C42.1423 97.4827 42.729 97.392 43.3903 97.392C44.0943 97.392 44.681 97.4933 45.1503 97.696C45.6303 97.8987 45.9876 98.1867 46.2223 98.56C46.4676 98.9333 46.5903 99.3813 46.5903 99.904V104.464C46.5903 104.667 46.6383 104.811 46.7343 104.896C46.8303 104.971 46.9476 105.008 47.0863 105.008H47.7103V105.936C47.561 106 47.3956 106.053 47.2143 106.096C47.033 106.149 46.825 106.176 46.5903 106.176C46.313 106.176 46.0836 106.117 45.9023 106C45.721 105.893 45.5823 105.744 45.4863 105.552C45.3903 105.349 45.3263 105.125 45.2943 104.88H45.1823C44.9903 105.147 44.745 105.381 44.4463 105.584C44.1583 105.776 43.833 105.925 43.4703 106.032C43.1076 106.139 42.713 106.192 42.2863 106.192ZM42.6383 105.008C42.9796 105.008 43.2996 104.955 43.5983 104.848C43.9076 104.741 44.1796 104.592 44.4143 104.4C44.649 104.197 44.8356 103.957 44.9743 103.68C45.113 103.403 45.1823 103.099 45.1823 102.768V102.064C44.3183 102.064 43.5823 102.112 42.9743 102.208C42.3663 102.304 41.897 102.475 41.5663 102.72C41.2463 102.965 41.0863 103.312 41.0863 103.76C41.0863 104.048 41.1503 104.283 41.2783 104.464C41.4063 104.645 41.5876 104.784 41.8223 104.88C42.057 104.965 42.329 105.008 42.6383 105.008ZM49.6131 108.912C49.3571 108.912 49.1331 108.891 48.9411 108.848C48.7597 108.816 48.6371 108.795 48.5731 108.784V107.76H49.2771C49.5331 107.76 49.7837 107.707 50.0291 107.6C50.2744 107.493 50.5037 107.312 50.7171 107.056C50.9304 106.8 51.1117 106.448 51.2611 106L47.9971 97.584H49.4691L51.1491 101.92C51.2237 102.123 51.3091 102.373 51.4051 102.672C51.5117 102.96 51.6131 103.259 51.7091 103.568C51.8157 103.877 51.9011 104.149 51.9651 104.384H52.0611C52.1037 104.213 52.1571 104.021 52.2211 103.808C52.2851 103.595 52.3491 103.376 52.4131 103.152C52.4877 102.917 52.5571 102.699 52.6211 102.496C52.6957 102.283 52.7544 102.096 52.7971 101.936L54.2211 97.584H55.6451L52.7971 105.76C52.6371 106.219 52.4611 106.64 52.2691 107.024C52.0771 107.419 51.8637 107.755 51.6291 108.032C51.3944 108.309 51.1117 108.523 50.7811 108.672C50.4504 108.832 50.0611 108.912 49.6131 108.912ZM59.8996 106.192C59.3236 106.192 58.8169 106.133 58.3796 106.016C57.9422 105.899 57.5796 105.728 57.2916 105.504C57.0036 105.28 56.7849 105.013 56.6356 104.704C56.4862 104.395 56.4116 104.043 56.4116 103.648C56.4116 103.595 56.4116 103.547 56.4116 103.504C56.4116 103.451 56.4169 103.408 56.4276 103.376H57.8196C57.8089 103.419 57.8036 103.456 57.8036 103.488C57.8036 103.52 57.8036 103.552 57.8036 103.584C57.8142 103.957 57.9102 104.251 58.0916 104.464C58.2836 104.677 58.5449 104.827 58.8756 104.912C59.2062 104.997 59.5742 105.04 59.9796 105.04C60.3316 105.04 60.6569 104.997 60.9556 104.912C61.2542 104.816 61.4889 104.677 61.6596 104.496C61.8409 104.304 61.9316 104.064 61.9316 103.776C61.9316 103.424 61.8142 103.157 61.5796 102.976C61.3556 102.784 61.0569 102.635 60.6836 102.528C60.3102 102.421 59.9209 102.309 59.5156 102.192C59.1742 102.096 58.8329 101.989 58.4916 101.872C58.1502 101.755 57.8409 101.611 57.5636 101.44C57.2969 101.269 57.0782 101.051 56.9076 100.784C56.7476 100.507 56.6676 100.16 56.6676 99.744C56.6676 99.3707 56.7422 99.04 56.8916 98.752C57.0516 98.464 57.2756 98.2187 57.5636 98.016C57.8516 97.8133 58.1982 97.664 58.6036 97.568C59.0196 97.4613 59.4782 97.408 59.9796 97.408C60.5129 97.408 60.9769 97.4667 61.3716 97.584C61.7769 97.7013 62.1129 97.8667 62.3796 98.08C62.6462 98.2933 62.8436 98.5387 62.9716 98.816C63.0996 99.0827 63.1636 99.3707 63.1636 99.68C63.1636 99.744 63.1636 99.808 63.1636 99.872C63.1636 99.9253 63.1582 99.968 63.1476 100H61.7716V99.824C61.7716 99.6107 61.7129 99.408 61.5956 99.216C61.4889 99.0133 61.2969 98.8533 61.0196 98.736C60.7529 98.608 60.3796 98.544 59.8996 98.544C59.5902 98.544 59.3236 98.5707 59.0996 98.624C58.8756 98.6667 58.6889 98.7413 58.5396 98.848C58.3902 98.944 58.2782 99.0613 58.2036 99.2C58.1289 99.328 58.0916 99.4773 58.0916 99.648C58.0916 99.9253 58.1822 100.139 58.3636 100.288C58.5449 100.437 58.7849 100.56 59.0836 100.656C59.3929 100.752 59.7236 100.859 60.0756 100.976C60.4489 101.083 60.8276 101.195 61.2116 101.312C61.6062 101.419 61.9636 101.557 62.2836 101.728C62.6142 101.899 62.8756 102.133 63.0676 102.432C63.2702 102.72 63.3716 103.104 63.3716 103.584C63.3716 104.032 63.2862 104.421 63.1156 104.752C62.9449 105.083 62.6996 105.355 62.3796 105.568C62.0702 105.781 61.7022 105.936 61.2756 106.032C60.8596 106.139 60.4009 106.192 59.8996 106.192Z" fill="#515151"/>
<path d="M49.3251 61C49.1851 62.04 48.7051 63.34 47.8851 64.9C47.0651 66.44 46.0851 67.99 44.9451 69.55C43.8251 71.09 42.7751 72.36 41.7951 73.36H47.7351V69.07C48.3551 68.19 48.9851 67.15 49.6251 65.95C50.2651 64.75 50.6851 63.76 50.8851 62.98H53.4351V73.36H56.3151V77.77H53.4351V82H47.7351V77.77H37.6851V73.3C38.7651 71.74 39.8351 69.85 40.8951 67.63C41.9551 65.41 42.8051 63.2 43.4451 61H49.3251Z" fill="black"/>
<rect width="95" height="174" rx="18" fill="url(#paint0_linear_178_334)" fill-opacity="0.4"/>
<defs>
<linearGradient id="paint0_linear_178_334" x1="47.5" y1="0" x2="47.5" y2="174" gradientUnits="userSpaceOnUse">
<stop stop-color="#9C9C9C"/>
<stop offset="1" stop-color="#242424"/>
</linearGradient>
</defs>
</svg>
