<svg width="125" height="38" viewBox="0 0 125 38" fill="none" xmlns="http://www.w3.org/2000/svg">
<path d="M56.0318 24.688V21.212H61.6418V24.688H56.0318ZM71.344 13.6C73.588 13.6 75.3627 14.1647 76.668 15.294C77.9733 16.4087 78.626 18.0073 78.626 20.09H73.984C73.984 19.21 73.7493 18.5133 73.28 18C72.8253 17.4867 72.1727 17.23 71.322 17.23C70.3393 17.23 69.6133 17.538 69.144 18.154C68.6893 18.77 68.462 19.628 68.462 20.728V22.136C68.462 23.2213 68.6893 24.0793 69.144 24.71C69.6133 25.326 70.3247 25.634 71.278 25.634C72.2167 25.634 72.928 25.392 73.412 24.908C73.896 24.424 74.138 23.742 74.138 22.862H78.626C78.626 24.93 77.988 26.514 76.712 27.614C75.4507 28.714 73.6613 29.264 71.344 29.264C68.7627 29.264 66.8047 28.604 65.47 27.284C64.15 25.964 63.49 24.0133 63.49 21.432C63.49 18.8507 64.15 16.9 65.47 15.58C66.8047 14.26 68.7627 13.6 71.344 13.6ZM88.775 13.6C91.3857 13.6 93.4024 14.2673 94.825 15.602C96.2477 16.9367 96.959 18.88 96.959 21.432C96.959 23.984 96.2477 25.9273 94.825 27.262C93.4024 28.5967 91.3857 29.264 88.775 29.264C86.1644 29.264 84.1477 28.604 82.725 27.284C81.317 25.9493 80.613 23.9987 80.613 21.432C80.613 18.8653 81.317 16.922 82.725 15.602C84.1477 14.2673 86.1644 13.6 88.775 13.6ZM88.775 17.23C87.7337 17.23 86.9417 17.5453 86.399 18.176C85.8564 18.8067 85.585 19.6573 85.585 20.728V22.136C85.585 23.2067 85.8564 24.0573 86.399 24.688C86.9417 25.3187 87.7337 25.634 88.775 25.634C89.8164 25.634 90.6084 25.3187 91.151 24.688C91.7084 24.0573 91.987 23.2067 91.987 22.136V20.728C91.987 19.6573 91.7084 18.8067 91.151 18.176C90.6084 17.5453 89.8164 17.23 88.775 17.23ZM99.7972 29V13.864H104.659V29H99.7972ZM118.952 29L112.594 21.652V29H108.128V13.864H112.374L118.732 21.322V13.864H123.198V29H118.952Z" fill="black"/>
<g clip-path="url(#clip0_140_326)">
<path d="M37.0187 2.46172C34.7098 7.15488 32.3948 11.8448 30.0816 16.5359C26.7857 23.2189 23.4913 29.9029 20.1923 36.5844C20.0322 36.9086 19.8686 37.2417 19.6468 37.5225C19.1578 38.1411 18.5516 38.1547 18.0053 37.586C17.8534 37.428 17.7227 37.2438 17.6081 37.0557C15.1823 33.0676 13.9018 28.7457 13.87 24.0463C13.8441 20.2301 14.6368 16.6197 16.3349 13.2054C18.3403 9.1737 20.3223 5.12986 22.2886 1.07834C22.665 0.302942 23.1995 -0.013597 24.0415 0.00057639C25.9999 0.0336476 27.9596 0.0112064 29.9186 0.0112064C31.8776 0.0112064 33.7567 0.0132734 35.6755 0.022427C36.0131 0.0241987 36.3581 0.0481163 36.6861 0.123708C37.3377 0.273414 37.6194 0.737592 37.4468 1.39695C37.3505 1.76457 37.1873 2.1192 37.0187 2.46172Z" fill="url(#paint0_linear_140_326)"/>
<path d="M57.6096 2.4616C55.3007 7.15476 52.9857 11.8447 50.6724 16.5358C47.3766 23.2188 44.0822 29.9027 40.7831 36.5843C40.6231 36.9085 40.4595 37.2416 40.2376 37.5224C39.7487 38.141 39.1425 38.1546 38.5961 37.5859C38.4442 37.4279 38.3136 37.2437 38.199 37.0556C35.7732 33.0675 34.4926 28.7455 34.4609 24.0462C34.4349 20.23 35.2277 16.6196 36.9258 13.2053C38.9311 9.17358 40.9132 5.12974 42.8795 1.07822C43.2559 0.30282 43.7903 -0.0137191 44.6324 0.00045432C46.5908 0.0335255 48.5504 0.0110844 50.5094 0.0110844C52.4685 0.0110844 54.3476 0.0131513 56.2664 0.0223049C56.604 0.0240766 56.9489 0.0479942 57.2769 0.123586C57.9286 0.273292 58.2102 0.73747 58.0376 1.39683C57.9414 1.76445 57.7781 2.11908 57.6096 2.4616Z" fill="url(#paint1_linear_140_326)"/>
<path d="M13.7889 10.416C13.1469 13.0327 12.0209 15.3958 10.2867 17.4498C10.08 17.6946 9.86041 17.9394 9.60704 18.1295C9.10264 18.5078 8.61835 18.4145 8.26293 17.8974C8.13843 17.7158 8.04368 17.5121 7.94513 17.3137C5.40502 12.1977 2.8655 7.08167 0.329178 1.96361C0.213427 1.73004 0.102924 1.48673 0.038197 1.23515C-0.100588 0.695089 0.145493 0.263982 0.67993 0.11841C0.926885 0.0513818 1.1925 0.0315981 1.44995 0.0292359C2.44885 0.0191964 3.44804 0.025102 4.44694 0.025102C5.44584 0.025102 6.52842 0.0141767 7.56114 0.0918349C10.9649 0.347842 13.2096 2.39501 13.8834 5.78422C14.1916 7.33531 14.1674 8.87401 13.7889 10.416Z" fill="url(#paint2_linear_140_326)"/>
</g>
<defs>
<linearGradient id="paint0_linear_140_326" x1="9.09505" y1="44.0051" x2="24.3318" y2="13.4404" gradientUnits="userSpaceOnUse">
<stop stop-color="white"/>
<stop offset="0.28" stop-color="#B0B0B0"/>
<stop offset="0.63" stop-color="#525252"/>
<stop offset="0.88" stop-color="#161616"/>
<stop offset="1"/>
</linearGradient>
<linearGradient id="paint1_linear_140_326" x1="29.6859" y1="44.0049" x2="44.9227" y2="13.4403" gradientUnits="userSpaceOnUse">
<stop stop-color="white"/>
<stop offset="0.28" stop-color="#B0B0B0"/>
<stop offset="0.63" stop-color="#525252"/>
<stop offset="0.88" stop-color="#161616"/>
<stop offset="1"/>
</linearGradient>
<linearGradient id="paint2_linear_140_326" x1="0.932424" y1="18.5066" x2="7.20532" y2="5.72222" gradientUnits="userSpaceOnUse">
<stop stop-color="white"/>
<stop offset="0.11" stop-color="#CACACA"/>
<stop offset="0.24" stop-color="#959595"/>
<stop offset="0.37" stop-color="#676767"/>
<stop offset="0.5" stop-color="#424242"/>
<stop offset="0.63" stop-color="#252525"/>
<stop offset="0.75" stop-color="#101010"/>
<stop offset="0.88" stop-color="#040404"/>
<stop offset="1"/>
</linearGradient>
<clipPath id="clip0_140_326">
<rect width="58" height="38" fill="white"/>
</clipPath>
</defs>
</svg>
