<svg width="22" height="22" viewBox="0 0 22 22" fill="none" xmlns="http://www.w3.org/2000/svg">
<path d="M10.9996 8.70831C12.2655 8.70831 13.2912 9.73406 13.2912 11C13.2912 12.2659 12.2655 13.2916 10.9996 13.2916C9.73364 13.2916 8.70789 12.2659 8.70789 11" stroke="black" stroke-width="1.5" stroke-linecap="round" stroke-linejoin="round"/>
<path d="M6.61082 5.81075C5.52549 5.17916 4.13857 5.55316 3.51249 6.64583C2.8864 7.73941 3.25765 9.13641 4.34299 9.76616C5.2844 10.3152 5.2844 11.6847 4.34299 12.2338C3.25765 12.8645 2.8864 14.2624 3.51249 15.3542C4.13857 16.4468 5.52549 16.8208 6.6099 16.1911H6.61082C7.55315 15.642 8.73107 16.3277 8.73107 17.424C8.73107 18.6853 9.74765 19.7083 10.9998 19.7083C12.252 19.7083 13.2677 18.6853 13.2677 17.424C13.2677 16.3277 14.4465 15.642 15.3897 16.1911" stroke="black" stroke-width="1.5" stroke-linecap="round" stroke-linejoin="round"/>
<path d="M18.487 15.3542C19.114 14.2624 18.7418 12.8645 17.6574 12.2338H17.6565C16.7141 11.6847 16.7141 10.3152 17.6574 9.76616C18.7418 9.13641 19.114 7.73941 18.487 6.64582C17.86 5.55316 16.4731 5.17916 15.3896 5.81074C14.4463 6.35799 13.2675 5.67324 13.2675 4.57599C13.2675 3.31466 12.2518 2.29166 10.9996 2.29166C9.74748 2.29166 8.7309 3.31466 8.7309 4.57599" stroke="black" stroke-width="1.5" stroke-linecap="round" stroke-linejoin="round"/>
</svg>
