<svg width="223" height="291" viewBox="0 0 223 291" fill="none" xmlns="http://www.w3.org/2000/svg">
<g opacity="0.8" filter="url(#filter0_d_167_332)">
<path d="M4 74C4 65.7157 10.7157 59 19 59H204C212.284 59 219 65.7157 219 74V237.454C219 243.967 214.797 249.735 208.598 251.732L116.098 281.519C113.108 282.482 109.892 282.482 106.902 281.519L14.4021 251.732C8.20275 249.735 4 243.967 4 237.454V74Z" fill="#D0D0D0"/>
</g>
<g filter="url(#filter1_d_167_332)">
<path d="M4 57C4 48.7157 10.7157 42 19 42H204C212.284 42 219 48.7157 219 57V220.454C219 226.967 214.797 232.735 208.598 234.732L116.098 264.519C113.108 265.482 109.892 265.482 106.902 264.519L14.4021 234.732C8.20275 232.735 4 226.967 4 220.454V57Z" fill="#F4F4F4"/>
</g>
<path d="M60.9 169V166H65.85V153.04H60.87V150.79C61.47 150.73 62.17 150.59 62.97 150.37C63.79 150.13 64.62 149.84 65.46 149.5C66.3 149.16 67.06 148.8 67.74 148.42H69.54V166H74.1V169H60.9ZM83.8851 169.36C82.7651 169.36 81.7651 169.2 80.8851 168.88C80.0051 168.54 79.2551 167.97 78.6351 167.17C78.0151 166.37 77.5451 165.29 77.2251 163.93C76.9051 162.55 76.7451 160.81 76.7451 158.71C76.7451 156.61 76.9051 154.88 77.2251 153.52C77.5451 152.14 78.0151 151.05 78.6351 150.25C79.2551 149.45 80.0051 148.89 80.8851 148.57C81.7651 148.23 82.7651 148.06 83.8851 148.06C85.0051 148.06 85.9951 148.23 86.8551 148.57C87.7351 148.89 88.4851 149.45 89.1051 150.25C89.7251 151.05 90.1951 152.14 90.5151 153.52C90.8351 154.88 90.9951 156.61 90.9951 158.71C90.9951 160.81 90.8351 162.55 90.5151 163.93C90.1951 165.29 89.7251 166.37 89.1051 167.17C88.4851 167.97 87.7351 168.54 86.8551 168.88C85.9951 169.2 85.0051 169.36 83.8851 169.36ZM83.8851 166.36C84.8251 166.36 85.5251 166.11 85.9851 165.61C86.4651 165.09 86.7851 164.33 86.9451 163.33C87.1251 162.31 87.2151 161.05 87.2151 159.55V157.99C87.2151 156.45 87.1251 155.17 86.9451 154.15C86.7851 153.11 86.4651 152.34 85.9851 151.84C85.5251 151.32 84.8251 151.06 83.8851 151.06C82.9651 151.06 82.2551 151.32 81.7551 151.84C81.2751 152.34 80.9451 153.1 80.7651 154.12C80.6051 155.12 80.5251 156.38 80.5251 157.9V159.46C80.5251 160.98 80.6051 162.26 80.7651 163.3C80.9451 164.32 81.2751 165.09 81.7551 165.61C82.2551 166.11 82.9651 166.36 83.8851 166.36ZM95.441 169V166H100.391V153.04H95.411V150.79C96.011 150.73 96.711 150.59 97.511 150.37C98.331 150.13 99.161 149.84 100.001 149.5C100.841 149.16 101.601 148.8 102.281 148.42H104.081V166H108.641V169H95.441ZM112.366 169V165.16H116.176V169H112.366ZM127.48 169.36C125.9 169.36 124.56 169.11 123.46 168.61C122.36 168.09 121.52 167.37 120.94 166.45C120.38 165.51 120.1 164.42 120.1 163.18V162.73H123.82V163.27C123.82 164.27 124.13 165.04 124.75 165.58C125.37 166.1 126.24 166.36 127.36 166.36C128.42 166.36 129.27 166.11 129.91 165.61C130.55 165.11 130.87 164.31 130.87 163.21C130.87 162.35 130.69 161.7 130.33 161.26C129.99 160.8 129.53 160.48 128.95 160.3C128.39 160.12 127.78 160.03 127.12 160.03H125.41V157.03H127.21C127.81 157.03 128.35 156.92 128.83 156.7C129.33 156.48 129.72 156.14 130 155.68C130.3 155.22 130.45 154.64 130.45 153.94C130.45 153.26 130.32 152.71 130.06 152.29C129.8 151.87 129.44 151.56 128.98 151.36C128.52 151.16 128 151.06 127.42 151.06C126.8 151.06 126.25 151.17 125.77 151.39C125.29 151.59 124.92 151.91 124.66 152.35C124.4 152.77 124.27 153.31 124.27 153.97V154.45H120.55V153.7C120.55 152.56 120.84 151.57 121.42 150.73C122 149.87 122.8 149.21 123.82 148.75C124.86 148.29 126.04 148.06 127.36 148.06C128.72 148.06 129.91 148.28 130.93 148.72C131.97 149.14 132.78 149.77 133.36 150.61C133.94 151.45 134.23 152.48 134.23 153.7C134.23 154.5 134.08 155.2 133.78 155.8C133.5 156.38 133.11 156.87 132.61 157.27C132.11 157.67 131.55 158.02 130.93 158.32V158.44C131.99 158.76 132.87 159.34 133.57 160.18C134.29 161.02 134.65 162.12 134.65 163.48C134.65 164.7 134.34 165.75 133.72 166.63C133.12 167.51 132.28 168.19 131.2 168.67C130.12 169.13 128.88 169.36 127.48 169.36ZM141.645 169L156.705 148.42H159.615L144.495 169H141.645ZM143.625 158.89C142.625 158.89 141.755 158.73 141.015 158.41C140.275 158.07 139.705 157.51 139.305 156.73C138.925 155.95 138.735 154.87 138.735 153.49C138.735 152.09 138.925 151 139.305 150.22C139.705 149.44 140.275 148.89 141.015 148.57C141.755 148.23 142.625 148.06 143.625 148.06C144.645 148.06 145.515 148.23 146.235 148.57C146.955 148.89 147.505 149.44 147.885 150.22C148.285 151 148.485 152.09 148.485 153.49C148.485 154.87 148.285 155.96 147.885 156.76C147.505 157.54 146.955 158.09 146.235 158.41C145.515 158.73 144.645 158.89 143.625 158.89ZM143.625 156.67C144.445 156.67 144.985 156.4 145.245 155.86C145.505 155.32 145.635 154.59 145.635 153.67V153.28C145.635 152.68 145.575 152.16 145.455 151.72C145.355 151.26 145.155 150.91 144.855 150.67C144.575 150.41 144.165 150.28 143.625 150.28C142.825 150.28 142.285 150.56 142.005 151.12C141.745 151.66 141.615 152.38 141.615 153.28V153.67C141.615 154.59 141.745 155.32 142.005 155.86C142.285 156.4 142.825 156.67 143.625 156.67ZM157.545 169.36C156.545 169.36 155.675 169.2 154.935 168.88C154.215 168.54 153.655 167.98 153.255 167.2C152.875 166.42 152.685 165.34 152.685 163.96C152.685 162.56 152.875 161.47 153.255 160.69C153.655 159.91 154.215 159.36 154.935 159.04C155.675 158.7 156.545 158.53 157.545 158.53C158.565 158.53 159.435 158.7 160.155 159.04C160.895 159.36 161.455 159.91 161.835 160.69C162.215 161.47 162.405 162.56 162.405 163.96C162.405 165.34 162.215 166.43 161.835 167.23C161.455 168.01 160.895 168.56 160.155 168.88C159.435 169.2 158.565 169.36 157.545 169.36ZM157.545 167.14C158.365 167.14 158.905 166.87 159.165 166.33C159.425 165.77 159.555 165.03 159.555 164.11V163.75C159.555 163.15 159.495 162.63 159.375 162.19C159.275 161.73 159.085 161.38 158.805 161.14C158.525 160.88 158.105 160.75 157.545 160.75C156.745 160.75 156.215 161.03 155.955 161.59C155.695 162.13 155.565 162.85 155.565 163.75V164.11C155.565 165.03 155.695 165.77 155.955 166.33C156.215 166.87 156.745 167.14 157.545 167.14Z" fill="black"/>
<path d="M99.686 115L97.394 106.768H98.618L100.082 112.324C100.106 112.412 100.134 112.54 100.166 112.708C100.206 112.868 100.246 113.036 100.286 113.212C100.326 113.388 100.358 113.544 100.382 113.68H100.466C100.49 113.576 100.51 113.46 100.526 113.332C100.55 113.204 100.574 113.076 100.598 112.948C100.63 112.82 100.658 112.7 100.682 112.588C100.706 112.476 100.722 112.388 100.73 112.324L102.098 106.768H103.574L104.942 112.324C104.966 112.412 104.994 112.54 105.026 112.708C105.066 112.868 105.102 113.036 105.134 113.212C105.174 113.388 105.206 113.544 105.23 113.68H105.314C105.338 113.576 105.362 113.464 105.386 113.344C105.41 113.216 105.438 113.088 105.47 112.96C105.502 112.832 105.53 112.712 105.554 112.6C105.586 112.488 105.61 112.396 105.626 112.324L107.102 106.768H108.182L105.89 115H104.522L103.094 109.408C103.07 109.288 103.042 109.148 103.01 108.988C102.978 108.82 102.946 108.648 102.914 108.472C102.882 108.296 102.854 108.144 102.83 108.016H102.758C102.742 108.152 102.718 108.308 102.686 108.484C102.654 108.66 102.618 108.832 102.578 109C102.546 109.168 102.518 109.304 102.494 109.408L101.102 115H99.686ZM112.732 115.144C111.892 115.144 111.18 114.992 110.596 114.688C110.012 114.376 109.564 113.908 109.252 113.284C108.948 112.652 108.796 111.852 108.796 110.884C108.796 109.452 109.144 108.384 109.84 107.68C110.536 106.976 111.504 106.624 112.744 106.624C113.448 106.624 114.072 106.74 114.616 106.972C115.16 107.196 115.584 107.54 115.888 108.004C116.2 108.46 116.356 109.036 116.356 109.732H115.204C115.204 109.252 115.1 108.856 114.892 108.544C114.692 108.232 114.408 108 114.04 107.848C113.672 107.688 113.24 107.608 112.744 107.608C112.168 107.608 111.672 107.72 111.256 107.944C110.84 108.168 110.524 108.516 110.308 108.988C110.092 109.452 109.984 110.052 109.984 110.788V111.04C109.984 111.768 110.092 112.364 110.308 112.828C110.524 113.284 110.836 113.62 111.244 113.836C111.66 114.052 112.16 114.16 112.744 114.16C113.256 114.16 113.696 114.084 114.064 113.932C114.44 113.78 114.728 113.548 114.928 113.236C115.136 112.916 115.24 112.516 115.24 112.036H116.356C116.356 112.748 116.196 113.332 115.876 113.788C115.564 114.244 115.136 114.584 114.592 114.808C114.048 115.032 113.428 115.144 112.732 115.144ZM117.946 115V106.768H119.05L123.046 112.192C123.086 112.24 123.138 112.312 123.202 112.408C123.266 112.504 123.33 112.6 123.394 112.696C123.458 112.784 123.51 112.864 123.55 112.936H123.598C123.598 112.808 123.598 112.684 123.598 112.564C123.598 112.436 123.598 112.312 123.598 112.192V106.768H124.714V115H123.67L119.626 109.48C119.57 109.392 119.486 109.268 119.374 109.108C119.27 108.948 119.182 108.82 119.11 108.724H119.05C119.05 108.852 119.05 108.98 119.05 109.108C119.05 109.228 119.05 109.352 119.05 109.48V115H117.946Z" fill="#52544F"/>
<path d="M96.332 194L99.584 185.768H101.084L104.348 194H103.112L102.308 191.96H98.3L97.508 194H96.332ZM98.672 190.988H101.924L100.928 188.408C100.904 188.336 100.868 188.236 100.82 188.108C100.772 187.98 100.72 187.84 100.664 187.688C100.608 187.528 100.552 187.368 100.496 187.208C100.44 187.04 100.388 186.888 100.34 186.752H100.268C100.212 186.912 100.148 187.096 100.076 187.304C100.004 187.512 99.932 187.716 99.86 187.916C99.788 188.108 99.728 188.272 99.68 188.408L98.672 190.988ZM105.46 194V185.768H109.792C110.352 185.768 110.816 185.872 111.184 186.08C111.56 186.28 111.84 186.564 112.024 186.932C112.208 187.292 112.3 187.708 112.3 188.18C112.3 188.748 112.172 189.236 111.916 189.644C111.66 190.052 111.308 190.344 110.86 190.52L112.588 194H111.34L109.732 190.724H106.6V194H105.46ZM106.6 189.752H109.684C110.14 189.752 110.496 189.612 110.752 189.332C111.016 189.052 111.148 188.668 111.148 188.18C111.148 187.876 111.092 187.62 110.98 187.412C110.868 187.204 110.704 187.044 110.488 186.932C110.272 186.812 110.004 186.752 109.684 186.752H106.6V189.752ZM114.178 194V185.768H118.51C119.07 185.768 119.534 185.872 119.902 186.08C120.278 186.28 120.558 186.564 120.742 186.932C120.926 187.292 121.018 187.708 121.018 188.18C121.018 188.748 120.89 189.236 120.634 189.644C120.378 190.052 120.026 190.344 119.578 190.52L121.306 194H120.058L118.45 190.724H115.318V194H114.178ZM115.318 189.752H118.402C118.858 189.752 119.214 189.612 119.47 189.332C119.734 189.052 119.866 188.668 119.866 188.18C119.866 187.876 119.81 187.62 119.698 187.412C119.586 187.204 119.422 187.044 119.206 186.932C118.99 186.812 118.722 186.752 118.402 186.752H115.318V189.752ZM123.905 190.004L124.037 188.36L122.765 189.296L122.357 188.588L123.761 187.892L122.357 187.172L122.765 186.476L124.037 187.424L123.905 185.756H124.709L124.577 187.424L125.849 186.476L126.257 187.172L124.841 187.892L126.257 188.588L125.849 189.296L124.577 188.36L124.709 190.004H123.905Z" fill="#52544F"/>
<path d="M81.4379 95L78.0359 82.652H80.1779L82.2839 90.788C82.3199 90.92 82.3619 91.1 82.4099 91.328C82.4579 91.556 82.4999 91.796 82.5359 92.048C82.5839 92.288 82.6259 92.51 82.6619 92.714H82.7699C82.8059 92.558 82.8359 92.39 82.8599 92.21C82.8839 92.03 82.9139 91.85 82.9499 91.67C82.9859 91.49 83.0159 91.322 83.0399 91.166C83.0759 91.01 83.0999 90.884 83.1119 90.788L85.0559 82.652H87.6479L89.6099 90.788C89.6459 90.92 89.6879 91.1 89.7359 91.328C89.7839 91.556 89.8259 91.796 89.8619 92.048C89.9099 92.288 89.9519 92.51 89.9879 92.714H90.0959C90.1199 92.57 90.1499 92.408 90.1859 92.228C90.2219 92.048 90.2579 91.874 90.2939 91.706C90.3299 91.526 90.3659 91.358 90.4019 91.202C90.4499 91.046 90.4859 90.908 90.5099 90.788L92.6159 82.652H94.5239L91.1219 95H88.7639L86.6939 86.756C86.6579 86.576 86.6159 86.372 86.5679 86.144C86.5199 85.904 86.4719 85.664 86.4239 85.424C86.3879 85.172 86.3579 84.956 86.3339 84.776H86.2439C86.2199 84.968 86.1899 85.19 86.1539 85.442C86.1179 85.694 86.0759 85.94 86.0279 86.18C85.9799 86.408 85.9379 86.6 85.9019 86.756L83.8679 95H81.4379ZM94.554 91.04V89.24H99.108V91.04H94.554ZM106.632 95.216C105.372 95.216 104.298 94.994 103.41 94.55C102.534 94.094 101.862 93.392 101.394 92.444C100.926 91.496 100.692 90.29 100.692 88.826C100.692 86.666 101.214 85.064 102.258 84.02C103.314 82.964 104.778 82.436 106.65 82.436C107.682 82.436 108.606 82.61 109.422 82.958C110.25 83.306 110.898 83.828 111.366 84.524C111.846 85.208 112.086 86.084 112.086 87.152H110.034C110.034 86.492 109.896 85.94 109.62 85.496C109.344 85.052 108.948 84.716 108.432 84.488C107.928 84.26 107.34 84.146 106.668 84.146C105.828 84.146 105.114 84.314 104.526 84.65C103.95 84.974 103.512 85.466 103.212 86.126C102.924 86.786 102.78 87.626 102.78 88.646V89.042C102.78 90.062 102.924 90.902 103.212 91.562C103.512 92.222 103.95 92.714 104.526 93.038C105.102 93.35 105.816 93.506 106.668 93.506C107.364 93.506 107.97 93.398 108.486 93.182C109.002 92.954 109.398 92.618 109.674 92.174C109.962 91.73 110.106 91.178 110.106 90.518H112.086C112.086 91.586 111.846 92.468 111.366 93.164C110.898 93.86 110.25 94.376 109.422 94.712C108.606 95.048 107.676 95.216 106.632 95.216ZM119.927 95.216C118.655 95.216 117.551 94.982 116.615 94.514C115.691 94.046 114.977 93.338 114.473 92.39C113.981 91.442 113.735 90.254 113.735 88.826C113.735 87.386 113.981 86.198 114.473 85.262C114.977 84.314 115.691 83.606 116.615 83.138C117.551 82.67 118.655 82.436 119.927 82.436C121.223 82.436 122.333 82.67 123.257 83.138C124.181 83.606 124.889 84.314 125.381 85.262C125.885 86.198 126.137 87.386 126.137 88.826C126.137 90.254 125.885 91.442 125.381 92.39C124.889 93.338 124.181 94.046 123.257 94.514C122.333 94.982 121.223 95.216 119.927 95.216ZM119.927 93.506C120.587 93.506 121.169 93.416 121.673 93.236C122.189 93.056 122.621 92.78 122.969 92.408C123.329 92.036 123.599 91.568 123.779 91.004C123.971 90.44 124.067 89.786 124.067 89.042V88.646C124.067 87.878 123.971 87.212 123.779 86.648C123.599 86.084 123.329 85.616 122.969 85.244C122.621 84.872 122.189 84.596 121.673 84.416C121.169 84.236 120.587 84.146 119.927 84.146C119.279 84.146 118.697 84.236 118.181 84.416C117.677 84.596 117.245 84.872 116.885 85.244C116.537 85.616 116.273 86.084 116.093 86.648C115.913 87.212 115.823 87.878 115.823 88.646V89.042C115.823 89.786 115.913 90.44 116.093 91.004C116.273 91.568 116.537 92.036 116.885 92.408C117.245 92.78 117.677 93.056 118.181 93.236C118.697 93.416 119.279 93.506 119.927 93.506ZM128.462 95V82.652H130.478V95H128.462ZM133.401 95V82.652H135.345L140.979 90.392C141.051 90.464 141.129 90.566 141.213 90.698C141.309 90.83 141.399 90.962 141.483 91.094C141.567 91.226 141.627 91.334 141.663 91.418H141.753C141.753 91.238 141.753 91.064 141.753 90.896C141.753 90.728 141.753 90.56 141.753 90.392V82.652H143.697V95H141.825L136.119 87.17C136.023 87.026 135.903 86.846 135.759 86.63C135.615 86.402 135.507 86.228 135.435 86.108H135.345C135.345 86.276 135.345 86.45 135.345 86.63C135.345 86.798 135.345 86.978 135.345 87.17V95H133.401Z" fill="black"/>
<g filter="url(#filter2_d_167_332)">
<circle cx="110.5" cy="42.5" r="29.5" fill="#B6B6B6"/>
</g>
<g clip-path="url(#clip0_167_332)">
<path d="M116.083 31.8139C114.332 35.2721 112.575 38.7278 110.82 42.1844C108.32 47.1087 105.821 52.0337 103.318 56.957C103.197 57.1959 103.073 57.4413 102.904 57.6482C102.534 58.104 102.074 58.114 101.659 57.695C101.544 57.5786 101.445 57.4428 101.358 57.3042C99.5176 54.3657 98.5462 51.181 98.5221 47.7184C98.5024 44.9064 99.1038 42.2462 100.392 39.7304C101.913 36.7596 103.417 33.7799 104.909 30.7946C105.194 30.2233 105.6 29.99 106.238 30.0005C107.724 30.0248 109.211 30.0083 110.697 30.0083C112.183 30.0083 113.609 30.0098 115.064 30.0166C115.32 30.0179 115.582 30.0355 115.831 30.0912C116.325 30.2015 116.539 30.5435 116.408 31.0294C116.335 31.3002 116.211 31.5615 116.083 31.8139Z" fill="url(#paint0_linear_167_332)"/>
<path d="M131.704 31.8138C129.952 35.2719 128.196 38.7277 126.441 42.1842C123.941 47.1086 121.442 52.0336 118.939 56.9569C118.818 57.1957 118.693 57.4412 118.525 57.6481C118.154 58.1039 117.694 58.1139 117.28 57.6949C117.165 57.5785 117.066 57.4427 116.979 57.3041C115.138 54.3655 114.167 51.1809 114.143 47.7182C114.123 44.9063 114.724 42.246 116.013 39.7302C117.534 36.7595 119.038 33.7798 120.529 30.7945C120.815 30.2231 121.22 29.9899 121.859 30.0003C123.345 30.0247 124.831 30.0082 126.318 30.0082C127.804 30.0082 129.229 30.0097 130.685 30.0164C130.941 30.0177 131.203 30.0354 131.451 30.0911C131.946 30.2014 132.159 30.5434 132.029 31.0292C131.956 31.3001 131.832 31.5614 131.704 31.8138Z" fill="url(#paint1_linear_167_332)"/>
<path d="M98.4606 37.6749C97.9735 39.603 97.1193 41.3443 95.8037 42.8577C95.6469 43.0381 95.4803 43.2185 95.2881 43.3586C94.9055 43.6373 94.5381 43.5685 94.2684 43.1876C94.174 43.0538 94.1021 42.9036 94.0273 42.7574C92.1004 38.9877 90.1738 35.2181 88.2497 31.4469C88.1619 31.2748 88.0781 31.0955 88.029 30.9101C87.9237 30.5122 88.1104 30.1945 88.5158 30.0872C88.7032 30.0378 88.9047 30.0233 89.1 30.0215C89.8578 30.0141 90.6158 30.0185 91.3735 30.0185C92.1313 30.0185 92.9526 30.0104 93.736 30.0677C96.3182 30.2563 98.0211 31.7647 98.5323 34.262C98.766 35.405 98.7477 36.5387 98.4606 37.6749Z" fill="url(#paint2_linear_167_332)"/>
</g>
<defs>
<filter id="filter0_d_167_332" x="0" y="59" width="223" height="231.241" filterUnits="userSpaceOnUse" color-interpolation-filters="sRGB">
<feFlood flood-opacity="0" result="BackgroundImageFix"/>
<feColorMatrix in="SourceAlpha" type="matrix" values="0 0 0 0 0 0 0 0 0 0 0 0 0 0 0 0 0 0 127 0" result="hardAlpha"/>
<feOffset dy="4"/>
<feGaussianBlur stdDeviation="2"/>
<feComposite in2="hardAlpha" operator="out"/>
<feColorMatrix type="matrix" values="0 0 0 0 0 0 0 0 0 0 0 0 0 0 0 0 0 0 0.25 0"/>
<feBlend mode="normal" in2="BackgroundImageFix" result="effect1_dropShadow_167_332"/>
<feBlend mode="normal" in="SourceGraphic" in2="effect1_dropShadow_167_332" result="shape"/>
</filter>
<filter id="filter1_d_167_332" x="0" y="42" width="223" height="231.241" filterUnits="userSpaceOnUse" color-interpolation-filters="sRGB">
<feFlood flood-opacity="0" result="BackgroundImageFix"/>
<feColorMatrix in="SourceAlpha" type="matrix" values="0 0 0 0 0 0 0 0 0 0 0 0 0 0 0 0 0 0 127 0" result="hardAlpha"/>
<feOffset dy="4"/>
<feGaussianBlur stdDeviation="2"/>
<feComposite in2="hardAlpha" operator="out"/>
<feColorMatrix type="matrix" values="0 0 0 0 0 0 0 0 0 0 0 0 0 0 0 0 0 0 0.25 0"/>
<feBlend mode="normal" in2="BackgroundImageFix" result="effect1_dropShadow_167_332"/>
<feBlend mode="normal" in="SourceGraphic" in2="effect1_dropShadow_167_332" result="shape"/>
</filter>
<filter id="filter2_d_167_332" x="64.2" y="0.2" width="92.6" height="92.6" filterUnits="userSpaceOnUse" color-interpolation-filters="sRGB">
<feFlood flood-opacity="0" result="BackgroundImageFix"/>
<feColorMatrix in="SourceAlpha" type="matrix" values="0 0 0 0 0 0 0 0 0 0 0 0 0 0 0 0 0 0 127 0" result="hardAlpha"/>
<feMorphology radius="3" operator="dilate" in="SourceAlpha" result="effect1_dropShadow_167_332"/>
<feOffset dy="4"/>
<feGaussianBlur stdDeviation="6.9"/>
<feComposite in2="hardAlpha" operator="out"/>
<feColorMatrix type="matrix" values="0 0 0 0 0 0 0 0 0 0 0 0 0 0 0 0 0 0 0.25 0"/>
<feBlend mode="normal" in2="BackgroundImageFix" result="effect1_dropShadow_167_332"/>
<feBlend mode="normal" in="SourceGraphic" in2="effect1_dropShadow_167_332" result="shape"/>
</filter>
<linearGradient id="paint0_linear_167_332" x1="94.8997" y1="62.4248" x2="105.929" y2="39.6469" gradientUnits="userSpaceOnUse">
<stop stop-color="white"/>
<stop offset="0.28" stop-color="#B0B0B0"/>
<stop offset="0.63" stop-color="#525252"/>
<stop offset="0.88" stop-color="#161616"/>
<stop offset="1"/>
</linearGradient>
<linearGradient id="paint1_linear_167_332" x1="110.52" y1="62.4247" x2="121.549" y2="39.6468" gradientUnits="userSpaceOnUse">
<stop stop-color="white"/>
<stop offset="0.28" stop-color="#B0B0B0"/>
<stop offset="0.63" stop-color="#525252"/>
<stop offset="0.88" stop-color="#161616"/>
<stop offset="1"/>
</linearGradient>
<linearGradient id="paint2_linear_167_332" x1="88.7074" y1="43.6364" x2="93.2466" y2="34.1118" gradientUnits="userSpaceOnUse">
<stop stop-color="white"/>
<stop offset="0.11" stop-color="#CACACA"/>
<stop offset="0.24" stop-color="#959595"/>
<stop offset="0.37" stop-color="#676767"/>
<stop offset="0.5" stop-color="#424242"/>
<stop offset="0.63" stop-color="#252525"/>
<stop offset="0.75" stop-color="#101010"/>
<stop offset="0.88" stop-color="#040404"/>
<stop offset="1"/>
</linearGradient>
<clipPath id="clip0_167_332">
<rect width="44" height="28" fill="white" transform="translate(88 30)"/>
</clipPath>
</defs>
</svg>
