<svg width="95" height="174" viewBox="0 0 95 174" fill="none" xmlns="http://www.w3.org/2000/svg">
<path d="M34.4602 106.192C33.7669 106.192 33.1695 106.037 32.6682 105.728C32.1775 105.419 31.7935 104.939 31.5162 104.288C31.2495 103.627 31.1162 102.773 31.1162 101.728C31.1162 100.736 31.2549 99.92 31.5322 99.28C31.8095 98.64 32.1935 98.1653 32.6842 97.856C33.1749 97.5467 33.7455 97.392 34.3962 97.392C34.7695 97.392 35.1162 97.4347 35.4362 97.52C35.7562 97.6053 36.0389 97.7387 36.2842 97.92C36.5402 98.1013 36.7642 98.3413 36.9562 98.64H37.0522V94.432H38.4602V106H37.3242L37.1962 104.8H37.0842C36.7962 105.269 36.4229 105.621 35.9642 105.856C35.5055 106.08 35.0042 106.192 34.4602 106.192ZM34.7962 104.96C35.3295 104.96 35.7615 104.843 36.0922 104.608C36.4229 104.373 36.6629 104.032 36.8122 103.584C36.9722 103.136 37.0522 102.581 37.0522 101.92V101.664C37.0522 101.088 36.9935 100.603 36.8762 100.208C36.7589 99.8133 36.5989 99.4987 36.3962 99.264C36.1935 99.0293 35.9589 98.864 35.6922 98.768C35.4255 98.672 35.1429 98.624 34.8442 98.624C34.3215 98.624 33.8949 98.7307 33.5642 98.944C33.2335 99.1467 32.9882 99.472 32.8282 99.92C32.6682 100.357 32.5882 100.928 32.5882 101.632V101.968C32.5882 102.693 32.6735 103.28 32.8442 103.728C33.0149 104.165 33.2602 104.48 33.5802 104.672C33.9109 104.864 34.3162 104.96 34.7962 104.96ZM42.7863 106.192C42.477 106.192 42.1676 106.155 41.8583 106.08C41.549 106.005 41.261 105.883 40.9943 105.712C40.7276 105.541 40.5143 105.307 40.3543 105.008C40.1943 104.699 40.1143 104.315 40.1143 103.856C40.1143 103.28 40.253 102.805 40.5303 102.432C40.8076 102.059 41.1916 101.771 41.6823 101.568C42.1836 101.355 42.7756 101.211 43.4583 101.136C44.141 101.051 44.8823 101.008 45.6823 101.008V100.048C45.6823 99.7387 45.629 99.472 45.5223 99.248C45.4156 99.024 45.2236 98.8533 44.9463 98.736C44.6796 98.608 44.2956 98.544 43.7943 98.544C43.3143 98.544 42.9303 98.608 42.6423 98.736C42.365 98.8533 42.1676 99.008 42.0503 99.2C41.9436 99.392 41.8903 99.6053 41.8903 99.84V100.08H40.5303C40.5196 100.027 40.5143 99.9733 40.5143 99.92C40.5143 99.8667 40.5143 99.8027 40.5143 99.728C40.5143 99.216 40.653 98.7893 40.9303 98.448C41.2183 98.096 41.6183 97.8347 42.1303 97.664C42.6423 97.4827 43.229 97.392 43.8903 97.392C44.5943 97.392 45.181 97.4933 45.6503 97.696C46.1303 97.8987 46.4876 98.1867 46.7223 98.56C46.9676 98.9333 47.0903 99.3813 47.0903 99.904V104.464C47.0903 104.667 47.1383 104.811 47.2343 104.896C47.3303 104.971 47.4476 105.008 47.5863 105.008H48.2103V105.936C48.061 106 47.8956 106.053 47.7143 106.096C47.533 106.149 47.325 106.176 47.0903 106.176C46.813 106.176 46.5836 106.117 46.4023 106C46.221 105.893 46.0823 105.744 45.9863 105.552C45.8903 105.349 45.8263 105.125 45.7943 104.88H45.6823C45.4903 105.147 45.245 105.381 44.9463 105.584C44.6583 105.776 44.333 105.925 43.9703 106.032C43.6076 106.139 43.213 106.192 42.7863 106.192ZM43.1383 105.008C43.4796 105.008 43.7996 104.955 44.0983 104.848C44.4076 104.741 44.6796 104.592 44.9143 104.4C45.149 104.197 45.3356 103.957 45.4743 103.68C45.613 103.403 45.6823 103.099 45.6823 102.768V102.064C44.8183 102.064 44.0823 102.112 43.4743 102.208C42.8663 102.304 42.397 102.475 42.0663 102.72C41.7463 102.965 41.5863 103.312 41.5863 103.76C41.5863 104.048 41.6503 104.283 41.7783 104.464C41.9063 104.645 42.0876 104.784 42.3223 104.88C42.557 104.965 42.829 105.008 43.1383 105.008ZM50.1131 108.912C49.8571 108.912 49.6331 108.891 49.4411 108.848C49.2597 108.816 49.1371 108.795 49.0731 108.784V107.76H49.7771C50.0331 107.76 50.2837 107.707 50.5291 107.6C50.7744 107.493 51.0037 107.312 51.2171 107.056C51.4304 106.8 51.6117 106.448 51.7611 106L48.4971 97.584H49.9691L51.6491 101.92C51.7237 102.123 51.8091 102.373 51.9051 102.672C52.0117 102.96 52.1131 103.259 52.2091 103.568C52.3157 103.877 52.4011 104.149 52.4651 104.384H52.5611C52.6037 104.213 52.6571 104.021 52.7211 103.808C52.7851 103.595 52.8491 103.376 52.9131 103.152C52.9877 102.917 53.0571 102.699 53.1211 102.496C53.1957 102.283 53.2544 102.096 53.2971 101.936L54.7211 97.584H56.1451L53.2971 105.76C53.1371 106.219 52.9611 106.64 52.7691 107.024C52.5771 107.419 52.3637 107.755 52.1291 108.032C51.8944 108.309 51.6117 108.523 51.2811 108.672C50.9504 108.832 50.5611 108.912 50.1131 108.912ZM60.3996 106.192C59.8236 106.192 59.3169 106.133 58.8796 106.016C58.4422 105.899 58.0796 105.728 57.7916 105.504C57.5036 105.28 57.2849 105.013 57.1356 104.704C56.9862 104.395 56.9116 104.043 56.9116 103.648C56.9116 103.595 56.9116 103.547 56.9116 103.504C56.9116 103.451 56.9169 103.408 56.9276 103.376H58.3196C58.3089 103.419 58.3036 103.456 58.3036 103.488C58.3036 103.52 58.3036 103.552 58.3036 103.584C58.3142 103.957 58.4102 104.251 58.5916 104.464C58.7836 104.677 59.0449 104.827 59.3756 104.912C59.7062 104.997 60.0742 105.04 60.4796 105.04C60.8316 105.04 61.1569 104.997 61.4556 104.912C61.7542 104.816 61.9889 104.677 62.1596 104.496C62.3409 104.304 62.4316 104.064 62.4316 103.776C62.4316 103.424 62.3142 103.157 62.0796 102.976C61.8556 102.784 61.5569 102.635 61.1836 102.528C60.8102 102.421 60.4209 102.309 60.0156 102.192C59.6742 102.096 59.3329 101.989 58.9916 101.872C58.6502 101.755 58.3409 101.611 58.0636 101.44C57.7969 101.269 57.5782 101.051 57.4076 100.784C57.2476 100.507 57.1676 100.16 57.1676 99.744C57.1676 99.3707 57.2422 99.04 57.3916 98.752C57.5516 98.464 57.7756 98.2187 58.0636 98.016C58.3516 97.8133 58.6982 97.664 59.1036 97.568C59.5196 97.4613 59.9782 97.408 60.4796 97.408C61.0129 97.408 61.4769 97.4667 61.8716 97.584C62.2769 97.7013 62.6129 97.8667 62.8796 98.08C63.1462 98.2933 63.3436 98.5387 63.4716 98.816C63.5996 99.0827 63.6636 99.3707 63.6636 99.68C63.6636 99.744 63.6636 99.808 63.6636 99.872C63.6636 99.9253 63.6582 99.968 63.6476 100H62.2716V99.824C62.2716 99.6107 62.2129 99.408 62.0956 99.216C61.9889 99.0133 61.7969 98.8533 61.5196 98.736C61.2529 98.608 60.8796 98.544 60.3996 98.544C60.0902 98.544 59.8236 98.5707 59.5996 98.624C59.3756 98.6667 59.1889 98.7413 59.0396 98.848C58.8902 98.944 58.7782 99.0613 58.7036 99.2C58.6289 99.328 58.5916 99.4773 58.5916 99.648C58.5916 99.9253 58.6822 100.139 58.8636 100.288C59.0449 100.437 59.2849 100.56 59.5836 100.656C59.8929 100.752 60.2236 100.859 60.5756 100.976C60.9489 101.083 61.3276 101.195 61.7116 101.312C62.1062 101.419 62.4636 101.557 62.7836 101.728C63.1142 101.899 63.3756 102.133 63.5676 102.432C63.7702 102.72 63.8716 103.104 63.8716 103.584C63.8716 104.032 63.7862 104.421 63.6156 104.752C63.4449 105.083 63.1996 105.355 62.8796 105.568C62.5702 105.781 62.2022 105.936 61.7756 106.032C61.3596 106.139 60.9009 106.192 60.3996 106.192Z" fill="#515151"/>
<path d="M46.2102 77.38V82H30.6402V77.38H35.5302V68.05H30.6402V64.57C31.9802 64.49 33.4802 64.14 35.1402 63.52C36.8002 62.88 38.2502 62.15 39.4902 61.33H41.5002V77.38H46.2102ZM59.83 61C59.69 62.04 59.21 63.34 58.39 64.9C57.57 66.44 56.59 67.99 55.45 69.55C54.33 71.09 53.28 72.36 52.3 73.36H58.24V69.07C58.86 68.19 59.49 67.15 60.13 65.95C60.77 64.75 61.19 63.76 61.39 62.98H63.94V73.36H66.82V77.77H63.94V82H58.24V77.77H48.19V73.3C49.27 71.74 50.34 69.85 51.4 67.63C52.46 65.41 53.31 63.2 53.95 61H59.83Z" fill="black"/>
<rect width="95" height="174" rx="18" fill="url(#paint0_linear_178_335)" fill-opacity="0.4"/>
<defs>
<linearGradient id="paint0_linear_178_335" x1="47.5" y1="0" x2="47.5" y2="174" gradientUnits="userSpaceOnUse">
<stop stop-color="#9C9C9C"/>
<stop offset="1" stop-color="#242424"/>
</linearGradient>
</defs>
</svg>
