<svg width="95" height="174" viewBox="0 0 95 174" fill="none" xmlns="http://www.w3.org/2000/svg">
<rect width="95" height="174" rx="18" fill="url(#paint0_linear_178_336)" fill-opacity="0.4"/>
<path d="M34.9602 106.192C34.2669 106.192 33.6695 106.037 33.1682 105.728C32.6775 105.419 32.2935 104.939 32.0162 104.288C31.7495 103.627 31.6162 102.773 31.6162 101.728C31.6162 100.736 31.7549 99.92 32.0322 99.28C32.3095 98.64 32.6935 98.1653 33.1842 97.856C33.6749 97.5467 34.2455 97.392 34.8962 97.392C35.2695 97.392 35.6162 97.4347 35.9362 97.52C36.2562 97.6053 36.5389 97.7387 36.7842 97.92C37.0402 98.1013 37.2642 98.3413 37.4562 98.64H37.5522V94.432H38.9602V106H37.8242L37.6962 104.8H37.5842C37.2962 105.269 36.9229 105.621 36.4642 105.856C36.0055 106.08 35.5042 106.192 34.9602 106.192ZM35.2962 104.96C35.8295 104.96 36.2615 104.843 36.5922 104.608C36.9229 104.373 37.1629 104.032 37.3122 103.584C37.4722 103.136 37.5522 102.581 37.5522 101.92V101.664C37.5522 101.088 37.4935 100.603 37.3762 100.208C37.2589 99.8133 37.0989 99.4987 36.8962 99.264C36.6935 99.0293 36.4589 98.864 36.1922 98.768C35.9255 98.672 35.6429 98.624 35.3442 98.624C34.8215 98.624 34.3949 98.7307 34.0642 98.944C33.7335 99.1467 33.4882 99.472 33.3282 99.92C33.1682 100.357 33.0882 100.928 33.0882 101.632V101.968C33.0882 102.693 33.1735 103.28 33.3442 103.728C33.5149 104.165 33.7602 104.48 34.0802 104.672C34.4109 104.864 34.8162 104.96 35.2962 104.96ZM43.2863 106.192C42.977 106.192 42.6676 106.155 42.3583 106.08C42.049 106.005 41.761 105.883 41.4943 105.712C41.2276 105.541 41.0143 105.307 40.8543 105.008C40.6943 104.699 40.6143 104.315 40.6143 103.856C40.6143 103.28 40.753 102.805 41.0303 102.432C41.3076 102.059 41.6916 101.771 42.1823 101.568C42.6836 101.355 43.2756 101.211 43.9583 101.136C44.641 101.051 45.3823 101.008 46.1823 101.008V100.048C46.1823 99.7387 46.129 99.472 46.0223 99.248C45.9156 99.024 45.7236 98.8533 45.4463 98.736C45.1796 98.608 44.7956 98.544 44.2943 98.544C43.8143 98.544 43.4303 98.608 43.1423 98.736C42.865 98.8533 42.6676 99.008 42.5503 99.2C42.4436 99.392 42.3903 99.6053 42.3903 99.84V100.08H41.0303C41.0196 100.027 41.0143 99.9733 41.0143 99.92C41.0143 99.8667 41.0143 99.8027 41.0143 99.728C41.0143 99.216 41.153 98.7893 41.4303 98.448C41.7183 98.096 42.1183 97.8347 42.6303 97.664C43.1423 97.4827 43.729 97.392 44.3903 97.392C45.0943 97.392 45.681 97.4933 46.1503 97.696C46.6303 97.8987 46.9876 98.1867 47.2223 98.56C47.4676 98.9333 47.5903 99.3813 47.5903 99.904V104.464C47.5903 104.667 47.6383 104.811 47.7343 104.896C47.8303 104.971 47.9476 105.008 48.0863 105.008H48.7103V105.936C48.561 106 48.3956 106.053 48.2143 106.096C48.033 106.149 47.825 106.176 47.5903 106.176C47.313 106.176 47.0836 106.117 46.9023 106C46.721 105.893 46.5823 105.744 46.4863 105.552C46.3903 105.349 46.3263 105.125 46.2943 104.88H46.1823C45.9903 105.147 45.745 105.381 45.4463 105.584C45.1583 105.776 44.833 105.925 44.4703 106.032C44.1076 106.139 43.713 106.192 43.2863 106.192ZM43.6383 105.008C43.9796 105.008 44.2996 104.955 44.5983 104.848C44.9076 104.741 45.1796 104.592 45.4143 104.4C45.649 104.197 45.8356 103.957 45.9743 103.68C46.113 103.403 46.1823 103.099 46.1823 102.768V102.064C45.3183 102.064 44.5823 102.112 43.9743 102.208C43.3663 102.304 42.897 102.475 42.5663 102.72C42.2463 102.965 42.0863 103.312 42.0863 103.76C42.0863 104.048 42.1503 104.283 42.2783 104.464C42.4063 104.645 42.5876 104.784 42.8223 104.88C43.057 104.965 43.329 105.008 43.6383 105.008ZM50.6131 108.912C50.3571 108.912 50.1331 108.891 49.9411 108.848C49.7597 108.816 49.6371 108.795 49.5731 108.784V107.76H50.2771C50.5331 107.76 50.7837 107.707 51.0291 107.6C51.2744 107.493 51.5037 107.312 51.7171 107.056C51.9304 106.8 52.1117 106.448 52.2611 106L48.9971 97.584H50.4691L52.1491 101.92C52.2237 102.123 52.3091 102.373 52.4051 102.672C52.5117 102.96 52.6131 103.259 52.7091 103.568C52.8157 103.877 52.9011 104.149 52.9651 104.384H53.0611C53.1037 104.213 53.1571 104.021 53.2211 103.808C53.2851 103.595 53.3491 103.376 53.4131 103.152C53.4877 102.917 53.5571 102.699 53.6211 102.496C53.6957 102.283 53.7544 102.096 53.7971 101.936L55.2211 97.584H56.6451L53.7971 105.76C53.6371 106.219 53.4611 106.64 53.2691 107.024C53.0771 107.419 52.8637 107.755 52.6291 108.032C52.3944 108.309 52.1117 108.523 51.7811 108.672C51.4504 108.832 51.0611 108.912 50.6131 108.912ZM60.8996 106.192C60.3236 106.192 59.8169 106.133 59.3796 106.016C58.9422 105.899 58.5796 105.728 58.2916 105.504C58.0036 105.28 57.7849 105.013 57.6356 104.704C57.4862 104.395 57.4116 104.043 57.4116 103.648C57.4116 103.595 57.4116 103.547 57.4116 103.504C57.4116 103.451 57.4169 103.408 57.4276 103.376H58.8196C58.8089 103.419 58.8036 103.456 58.8036 103.488C58.8036 103.52 58.8036 103.552 58.8036 103.584C58.8142 103.957 58.9102 104.251 59.0916 104.464C59.2836 104.677 59.5449 104.827 59.8756 104.912C60.2062 104.997 60.5742 105.04 60.9796 105.04C61.3316 105.04 61.6569 104.997 61.9556 104.912C62.2542 104.816 62.4889 104.677 62.6596 104.496C62.8409 104.304 62.9316 104.064 62.9316 103.776C62.9316 103.424 62.8142 103.157 62.5796 102.976C62.3556 102.784 62.0569 102.635 61.6836 102.528C61.3102 102.421 60.9209 102.309 60.5156 102.192C60.1742 102.096 59.8329 101.989 59.4916 101.872C59.1502 101.755 58.8409 101.611 58.5636 101.44C58.2969 101.269 58.0782 101.051 57.9076 100.784C57.7476 100.507 57.6676 100.16 57.6676 99.744C57.6676 99.3707 57.7422 99.04 57.8916 98.752C58.0516 98.464 58.2756 98.2187 58.5636 98.016C58.8516 97.8133 59.1982 97.664 59.6036 97.568C60.0196 97.4613 60.4782 97.408 60.9796 97.408C61.5129 97.408 61.9769 97.4667 62.3716 97.584C62.7769 97.7013 63.1129 97.8667 63.3796 98.08C63.6462 98.2933 63.8436 98.5387 63.9716 98.816C64.0996 99.0827 64.1636 99.3707 64.1636 99.68C64.1636 99.744 64.1636 99.808 64.1636 99.872C64.1636 99.9253 64.1582 99.968 64.1476 100H62.7716V99.824C62.7716 99.6107 62.7129 99.408 62.5956 99.216C62.4889 99.0133 62.2969 98.8533 62.0196 98.736C61.7529 98.608 61.3796 98.544 60.8996 98.544C60.5902 98.544 60.3236 98.5707 60.0996 98.624C59.8756 98.6667 59.6889 98.7413 59.5396 98.848C59.3902 98.944 59.2782 99.0613 59.2036 99.2C59.1289 99.328 59.0916 99.4773 59.0916 99.648C59.0916 99.9253 59.1822 100.139 59.3636 100.288C59.5449 100.437 59.7849 100.56 60.0836 100.656C60.3929 100.752 60.7236 100.859 61.0756 100.976C61.4489 101.083 61.8276 101.195 62.2116 101.312C62.6062 101.419 62.9636 101.557 63.2836 101.728C63.6142 101.899 63.8756 102.133 64.0676 102.432C64.2702 102.72 64.3716 103.104 64.3716 103.584C64.3716 104.032 64.2862 104.421 64.1156 104.752C63.9449 105.083 63.6996 105.355 63.3796 105.568C63.0702 105.781 62.7022 105.936 62.2756 106.032C61.8596 106.139 61.4009 106.192 60.8996 106.192Z" fill="#515151"/>
<path d="M38.1602 61C39.8002 61 41.2202 61.25 42.4202 61.75C43.6402 62.25 44.5602 62.93 45.1802 63.79C45.8202 64.63 46.1402 65.57 46.1402 66.61C46.1402 67.65 45.8602 68.59 45.3002 69.43C44.7402 70.25 44.0202 70.83 43.1402 71.17V71.29C44.2802 71.65 45.1602 72.28 45.7802 73.18C46.4202 74.06 46.7402 75.13 46.7402 76.39C46.6602 78.15 45.8902 79.59 44.4302 80.71C42.9902 81.81 40.8602 82.36 38.0402 82.36C36.1002 82.36 34.4702 82.1 33.1502 81.58C31.8302 81.06 30.8502 80.35 30.2102 79.45C29.5702 78.55 29.2502 77.54 29.2502 76.42V75.79H34.5302C34.5302 77.43 35.5702 78.25 37.6502 78.25C39.7302 78.25 40.7702 77.33 40.7702 75.49C40.7702 74.79 40.5702 74.26 40.1702 73.9C39.7902 73.52 39.2902 73.33 38.6702 73.33H36.4802V69.64H38.1902C38.8102 69.64 39.3102 69.46 39.6902 69.1C40.0902 68.72 40.2902 68.18 40.2902 67.48C40.2902 66.82 40.0502 66.26 39.5702 65.8C39.1102 65.34 38.4702 65.11 37.6502 65.11C36.7902 65.11 36.1202 65.33 35.6402 65.77C35.1602 66.21 34.9202 66.75 34.9202 67.39H29.9102V66.64C29.9102 65.6 30.2302 64.65 30.8702 63.79C31.5302 62.93 32.4802 62.25 33.7202 61.75C34.9802 61.25 36.4602 61 38.1602 61ZM58.02 61C61.24 61 63.5 61.92 64.8 63.76C66.12 65.58 66.78 68.22 66.78 71.68C66.78 75.14 66.12 77.79 64.8 79.63C63.5 81.45 61.24 82.36 58.02 82.36C54.78 82.36 52.5 81.45 51.18 79.63C49.88 77.79 49.23 75.14 49.23 71.68C49.23 68.22 49.88 65.58 51.18 63.76C52.5 61.92 54.78 61 58.02 61ZM58.02 65.05C56.98 65.05 56.24 65.45 55.8 66.25C55.36 67.05 55.14 68.36 55.14 70.18V73.15C55.14 74.99 55.36 76.31 55.8 77.11C56.24 77.91 56.98 78.31 58.02 78.31C59.06 78.31 59.79 77.91 60.21 77.11C60.63 76.31 60.84 74.99 60.84 73.15V70.18C60.84 68.34 60.63 67.03 60.21 66.25C59.79 65.45 59.06 65.05 58.02 65.05Z" fill="black"/>
<defs>
<linearGradient id="paint0_linear_178_336" x1="47.5" y1="0" x2="47.5" y2="174" gradientUnits="userSpaceOnUse">
<stop stop-color="#9C9C9C"/>
<stop offset="1" stop-color="#242424"/>
</linearGradient>
</defs>
</svg>
