<svg width="391" height="699" viewBox="0 0 391 699" fill="none" xmlns="http://www.w3.org/2000/svg">
<g opacity="0.8" filter="url(#filter0_d_55_301)">
<path d="M4 217C4 203.193 15.1929 192 29 192H362C375.807 192 387 203.193 387 217V597.857C387 608.052 380.809 617.225 371.355 621.04L204.855 688.225C198.853 690.647 192.147 690.647 186.145 688.225L19.6451 621.04C10.1907 617.225 4 608.052 4 597.857V217Z" fill="#D0D0D0"/>
</g>
<g opacity="0.8" filter="url(#filter1_d_55_301)">
<path d="M387 457C387 470.807 375.807 482 362 482L29 482C15.1928 482 3.99997 470.807 3.99997 457L4 91.5911C4 81.2815 10.3286 72.0292 19.9369 68.2917L186.437 3.52546C192.266 1.25795 198.734 1.25795 204.563 3.52547L371.063 68.2917C380.671 72.0292 387 81.2815 387 91.5911L387 457Z" fill="#D0D0D0"/>
</g>
<g filter="url(#filter2_d_55_301)">
<path d="M4 128.496C4 118.281 10.2146 109.093 19.6958 105.292L185.72 38.721C191.677 36.3323 198.325 36.3263 204.287 38.7043L371.262 105.308C380.766 109.099 387 118.297 387 128.529V565.774C387 576.101 380.651 585.364 371.021 589.09L204.521 653.51C198.717 655.755 192.283 655.755 186.479 653.51L19.9791 589.09C10.3486 585.364 4 576.101 4 565.774V128.496Z" fill="#F4F4F4"/>
</g>
<g filter="url(#filter3_d_55_301)">
<circle cx="194.5" cy="59.5" r="44.5" fill="#B6B6B6"/>
</g>
<g clip-path="url(#clip0_55_301)">
<path d="M203.125 42.7856C200.497 48.0962 197.863 53.4032 195.231 58.7116C191.48 66.274 187.732 73.8374 183.977 81.3981C183.795 81.765 183.609 82.1419 183.357 82.4596C182.8 83.1596 182.111 83.175 181.489 82.5315C181.316 82.3527 181.167 82.1442 181.037 81.9314C178.277 77.4186 176.819 72.5279 176.783 67.2102C176.754 62.8919 177.656 58.8065 179.588 54.9429C181.87 50.3807 184.125 45.8048 186.363 41.2202C186.791 40.3427 187.399 39.9845 188.358 40.0006C190.586 40.038 192.816 40.0126 195.045 40.0126C197.275 40.0126 199.413 40.0149 201.596 40.0253C201.981 40.0273 202.373 40.0544 202.746 40.1399C203.488 40.3093 203.808 40.8346 203.612 41.5807C203.502 41.9967 203.317 42.398 203.125 42.7856Z" fill="url(#paint0_linear_55_301)"/>
<path d="M226.556 42.7854C223.929 48.0961 221.294 53.4031 218.662 58.7114C214.911 66.2738 211.163 73.8372 207.409 81.3979C207.226 81.7648 207.04 82.1417 206.788 82.4594C206.231 83.1594 205.542 83.1748 204.92 82.5313C204.747 82.3525 204.598 82.144 204.468 81.9312C201.708 77.4184 200.25 72.5277 200.214 67.21C200.185 62.8917 201.087 58.8063 203.019 54.9427C205.301 50.3805 207.556 45.8046 209.794 41.22C210.222 40.3425 210.83 39.9844 211.789 40.0004C214.017 40.0378 216.247 40.0124 218.476 40.0124C220.706 40.0124 222.844 40.0148 225.027 40.0251C225.412 40.0271 225.804 40.0542 226.177 40.1397C226.919 40.3091 227.239 40.8344 227.043 41.5805C226.933 41.9965 226.748 42.3978 226.556 42.7854Z" fill="url(#paint1_linear_55_301)"/>
<path d="M176.691 51.7863C175.96 54.7474 174.679 57.4215 172.706 59.7457C172.47 60.0227 172.221 60.2997 171.932 60.5148C171.358 60.9429 170.807 60.8373 170.403 60.2522C170.261 60.0467 170.153 59.8162 170.041 59.5916C167.151 53.8025 164.261 48.0133 161.375 42.2218C161.243 41.9575 161.117 41.6822 161.044 41.3975C160.886 40.7864 161.166 40.2986 161.774 40.1338C162.055 40.058 162.357 40.0356 162.65 40.0329C163.787 40.0216 164.924 40.0283 166.06 40.0283C167.197 40.0283 168.429 40.0159 169.604 40.1038C173.477 40.3935 176.032 42.71 176.798 46.5452C177.149 48.3003 177.122 50.0415 176.691 51.7863Z" fill="url(#paint2_linear_55_301)"/>
</g>
<defs>
<filter id="filter0_d_55_301" x="0" y="192" width="391" height="506.041" filterUnits="userSpaceOnUse" color-interpolation-filters="sRGB">
<feFlood flood-opacity="0" result="BackgroundImageFix"/>
<feColorMatrix in="SourceAlpha" type="matrix" values="0 0 0 0 0 0 0 0 0 0 0 0 0 0 0 0 0 0 127 0" result="hardAlpha"/>
<feOffset dy="4"/>
<feGaussianBlur stdDeviation="2"/>
<feComposite in2="hardAlpha" operator="out"/>
<feColorMatrix type="matrix" values="0 0 0 0 0 0 0 0 0 0 0 0 0 0 0 0 0 0 0.25 0"/>
<feBlend mode="normal" in2="BackgroundImageFix" result="effect1_dropShadow_55_301"/>
<feBlend mode="normal" in="SourceGraphic" in2="effect1_dropShadow_55_301" result="shape"/>
</filter>
<filter id="filter1_d_55_301" x="0" y="1.82483" width="391" height="488.175" filterUnits="userSpaceOnUse" color-interpolation-filters="sRGB">
<feFlood flood-opacity="0" result="BackgroundImageFix"/>
<feColorMatrix in="SourceAlpha" type="matrix" values="0 0 0 0 0 0 0 0 0 0 0 0 0 0 0 0 0 0 127 0" result="hardAlpha"/>
<feOffset dy="4"/>
<feGaussianBlur stdDeviation="2"/>
<feComposite in2="hardAlpha" operator="out"/>
<feColorMatrix type="matrix" values="0 0 0 0 0 0 0 0 0 0 0 0 0 0 0 0 0 0 0.25 0"/>
<feBlend mode="normal" in2="BackgroundImageFix" result="effect1_dropShadow_55_301"/>
<feBlend mode="normal" in="SourceGraphic" in2="effect1_dropShadow_55_301" result="shape"/>
</filter>
<filter id="filter2_d_55_301" x="0" y="36.9251" width="391" height="626.269" filterUnits="userSpaceOnUse" color-interpolation-filters="sRGB">
<feFlood flood-opacity="0" result="BackgroundImageFix"/>
<feColorMatrix in="SourceAlpha" type="matrix" values="0 0 0 0 0 0 0 0 0 0 0 0 0 0 0 0 0 0 127 0" result="hardAlpha"/>
<feOffset dy="4"/>
<feGaussianBlur stdDeviation="2"/>
<feComposite in2="hardAlpha" operator="out"/>
<feColorMatrix type="matrix" values="0 0 0 0 0 0 0 0 0 0 0 0 0 0 0 0 0 0 0.25 0"/>
<feBlend mode="normal" in2="BackgroundImageFix" result="effect1_dropShadow_55_301"/>
<feBlend mode="normal" in="SourceGraphic" in2="effect1_dropShadow_55_301" result="shape"/>
</filter>
<filter id="filter3_d_55_301" x="133.2" y="2.2" width="122.6" height="122.6" filterUnits="userSpaceOnUse" color-interpolation-filters="sRGB">
<feFlood flood-opacity="0" result="BackgroundImageFix"/>
<feColorMatrix in="SourceAlpha" type="matrix" values="0 0 0 0 0 0 0 0 0 0 0 0 0 0 0 0 0 0 127 0" result="hardAlpha"/>
<feMorphology radius="3" operator="dilate" in="SourceAlpha" result="effect1_dropShadow_55_301"/>
<feOffset dy="4"/>
<feGaussianBlur stdDeviation="6.9"/>
<feComposite in2="hardAlpha" operator="out"/>
<feColorMatrix type="matrix" values="0 0 0 0 0 0 0 0 0 0 0 0 0 0 0 0 0 0 0.25 0"/>
<feBlend mode="normal" in2="BackgroundImageFix" result="effect1_dropShadow_55_301"/>
<feBlend mode="normal" in="SourceGraphic" in2="effect1_dropShadow_55_301" result="shape"/>
</filter>
<linearGradient id="paint0_linear_55_301" x1="171.35" y1="89.7951" x2="188.533" y2="55.132" gradientUnits="userSpaceOnUse">
<stop stop-color="white"/>
<stop offset="0.28" stop-color="#B0B0B0"/>
<stop offset="0.63" stop-color="#525252"/>
<stop offset="0.88" stop-color="#161616"/>
<stop offset="1"/>
</linearGradient>
<linearGradient id="paint1_linear_55_301" x1="194.781" y1="89.7949" x2="211.964" y2="55.1318" gradientUnits="userSpaceOnUse">
<stop stop-color="white"/>
<stop offset="0.28" stop-color="#B0B0B0"/>
<stop offset="0.63" stop-color="#525252"/>
<stop offset="0.88" stop-color="#161616"/>
<stop offset="1"/>
</linearGradient>
<linearGradient id="paint2_linear_55_301" x1="162.061" y1="60.9415" x2="169.135" y2="46.4437" gradientUnits="userSpaceOnUse">
<stop stop-color="white"/>
<stop offset="0.11" stop-color="#CACACA"/>
<stop offset="0.24" stop-color="#959595"/>
<stop offset="0.37" stop-color="#676767"/>
<stop offset="0.5" stop-color="#424242"/>
<stop offset="0.63" stop-color="#252525"/>
<stop offset="0.75" stop-color="#101010"/>
<stop offset="0.88" stop-color="#040404"/>
<stop offset="1"/>
</linearGradient>
<clipPath id="clip0_55_301">
<rect width="66" height="43" fill="white" transform="translate(161 39.9999)"/>
</clipPath>
</defs>
</svg>
